<svg width="264" height="510" viewBox="0 0 264 510" fill="none" xmlns="http://www.w3.org/2000/svg">
<path d="M314.761 0.036786C314.761 1.46486 317.607 9.03362 319.386 12.461C322.944 19.1729 323.952 32.1683 321.995 45.378C321.283 49.8764 318.912 66.8704 318.615 69.5124C318.497 70.3692 318.141 72.7255 317.785 74.7248C316.955 79.6517 317.429 97.7167 318.556 103.786C319.623 109.57 323.359 119.352 328.576 129.848C336.64 146.057 339.664 153.34 341.977 161.766C344.645 171.691 345.06 174.975 345.06 186.114C345 200.181 347.076 212.748 350.752 221.388C351.167 222.387 351.523 223.53 351.523 223.887C351.523 225.315 357.571 237.382 359.942 240.809C362.433 244.522 362.433 244.951 359.942 243.023C351.641 236.668 344.17 223.458 339.368 206.393C338.182 202.251 336.996 198.253 336.699 197.467C336.403 196.682 335.573 194.254 334.921 192.112C330.355 177.689 322.588 165.193 312.686 156.268C310.077 153.911 307.705 151.555 307.35 151.127C307.053 150.698 304.207 148.056 301.124 145.271C291.578 136.703 284.7 126.778 281.735 117.495L280.431 113.211L280.727 121.066C281.557 143.772 282.565 151.912 285.233 158.695C287.131 163.551 288.85 166.335 298.574 180.759C303.199 187.542 307.172 195.968 309.128 203.037C311.678 212.391 311.678 227.957 309.069 248.235L308.832 250.449L302.606 250.235C295.491 249.949 286.301 247.664 283.632 245.45C279.304 241.952 274.442 235.097 274.442 232.455C274.442 231.884 274.205 231.384 273.968 231.384C273.671 231.384 273.671 233.169 273.908 235.383C274.679 242.166 279.66 253.376 288.02 267.086C289.977 270.37 291.637 273.369 291.637 273.726C291.637 274.583 288.257 273.869 282.328 271.656C278.593 270.228 276.695 269.014 274.264 266.443C269.402 261.445 267.03 257.161 261.576 243.594C258.848 236.739 255.409 229.171 253.986 226.743C249.598 219.317 242.068 211.962 233.471 206.75L230.506 204.893L231.218 206.536C231.633 207.464 234.004 210.748 236.495 213.89C239.044 217.032 241.772 221.031 242.543 222.816C244.796 227.528 247.167 241.738 248.116 255.875C248.531 262.659 249.065 269.799 249.302 271.798L249.658 275.44L243.195 275.94C233.174 276.725 219.715 276.368 215.564 275.226C210.762 273.94 203.706 269.728 201.808 267.014C200.978 265.8 200.326 264.944 200.326 265.086C200.326 265.943 204.061 277.582 205.129 280.153C207.975 286.793 212.185 291.077 222.679 297.789C226.652 300.36 231.158 303.644 232.7 305.215C238.036 310.57 242.068 320.853 240.467 324.851C239.756 326.565 239.459 326.708 235.783 326.636C233.589 326.636 231.455 326.279 231.04 325.851C230.625 325.422 228.668 324.423 226.711 323.566C224.755 322.638 222.917 321.709 222.561 321.352C222.264 321.067 220.13 319.567 217.817 318.139C210.465 313.355 202.579 306.429 199.081 301.716C197.895 300.146 195.523 296.433 193.804 293.505C186.392 280.795 177.38 270.799 170.383 267.514C166.588 265.658 158.169 263.658 149.631 262.445C141.626 261.302 132.614 257.518 127.574 253.091L126.21 251.948L127.099 255.019C128.285 259.089 129.115 263.373 129.53 268.014C129.945 272.227 132.554 280.295 135.104 285.151C136.646 288.15 142.219 294.933 150.817 304.43C152.417 306.215 153.544 307.929 153.307 308.214C153.07 308.5 152.299 308.071 151.528 307.286C149.097 304.644 142.575 299.717 139.314 298.003C137.476 297.004 134.63 295.504 132.91 294.505C131.25 293.576 129.59 292.791 129.293 292.791C128.997 292.791 127.159 292.006 125.202 291.077C119.569 288.293 112.869 286.436 105.813 285.651C95.3778 284.508 91.0494 283.866 87.6697 283.08C86.8396 282.937 85.6538 282.652 85.0015 282.509C72.9058 279.724 67.8659 273.726 57.4897 249.52C51.6197 235.74 45.5718 228.956 31.4601 220.316C29.4442 219.031 27.784 218.317 27.784 218.746C27.784 219.174 30.6893 222.887 34.1876 227.028C40.1169 234.026 40.7691 235.026 42.2514 239.881C44.9196 248.735 47.3506 263.73 48.5365 279.082C48.8329 282.723 49.248 286.008 49.4259 286.365C49.6037 286.793 50.0188 288.578 50.256 290.506C51.0268 295.861 53.2206 304.93 54.7029 308.857C58.0233 317.782 62.6482 324.708 71.6014 334.419C84.8237 348.771 92.2946 357.697 95.1406 362.481C98.7575 368.55 102.73 378.975 104.509 386.972C106.762 397.04 114.47 412.32 121.704 420.96C125.914 425.958 133.266 432.742 134.452 432.742C134.807 432.742 135.104 433.027 135.104 433.456C135.104 433.813 135.045 434.17 134.926 434.17C133.977 434.17 125.854 430.385 124.55 429.386C123.66 428.672 122.237 427.601 121.289 427.03C117.257 424.602 110.853 416.89 102.552 404.252C86.4839 379.975 79.6059 373.691 59.5056 365.051C50.7896 361.338 49.3073 360.696 44.5046 358.197C38.0416 354.912 32.1124 349.985 27.4282 343.987L23.6335 339.203L25.0565 342.916C25.8273 344.987 27.1911 349.128 28.0805 352.056C35.1956 376.19 38.1602 381.046 52.3312 391.613C57.7269 395.683 60.7508 398.111 61.2844 398.754C61.6402 399.182 63.3597 400.824 65.1385 402.467C72.0757 408.679 78.8944 421.674 80.851 432.242C81.2661 434.67 81.9776 437.811 82.3334 439.168C82.6891 440.525 83.4599 445.023 84.1122 449.165C86.0688 462.303 88.2034 473.656 89.745 479.154C90.5751 482.01 91.1087 484.509 91.0494 484.652C90.9308 484.795 86.1874 485.866 80.4953 487.08C60.6322 491.293 54.4658 489.293 42.3107 474.513C39.4054 471.014 35.6699 466.23 34.1283 463.945C29.5628 457.447 23.4556 452.521 15.629 449.165C11.4192 447.308 0.390718 444.024 0.0349613 444.523C-0.320796 444.952 2.11021 447.38 4.06687 448.593C7.50585 450.664 14.5617 455.877 15.8661 457.305C18.0007 459.589 22.0919 467.444 24.7008 474.156C27.784 482.224 31.9345 494.077 31.9345 494.934C31.9345 496.005 38.8125 512.357 41.0656 516.498C44.386 522.782 50.4931 531.064 54.1693 534.42C58.8534 538.562 60.0986 539.419 71.9571 546.702C90.2193 557.841 91.3459 558.769 98.5796 567.337C102.256 571.622 106.347 577.262 107.711 579.833C116.308 595.97 125.143 606.324 136.231 613.393C140.025 615.749 143.346 617.463 145.362 618.034C146.251 618.319 147.14 618.891 147.318 619.248C147.793 620.104 138.484 619.39 136.586 618.462C135.934 618.105 133.444 616.963 131.131 615.892C128.76 614.821 126.684 613.678 126.507 613.393C126.329 613.036 124.787 611.893 123.008 610.822C121.289 609.822 118.68 607.823 117.257 606.538C115.834 605.253 112.632 602.396 110.201 600.326C107.77 598.184 104.45 595.113 102.789 593.471C101.188 591.9 99.6469 590.543 99.469 590.543C99.2318 590.543 97.2159 589.187 95.022 587.545C91.5238 585.045 83.4599 580.904 80.5546 580.19C80.0802 580.047 77.6492 579.476 75.1589 578.833C72.6686 578.191 65.85 577.262 60.0393 576.62C47.9435 575.406 44.4453 574.692 36.9744 572.193C31.9938 570.479 24.5822 565.981 22.9813 563.696C22.6255 563.125 22.0326 562.696 21.7361 562.696C21.4397 562.696 22.6255 564.838 24.4043 567.48C26.1831 570.193 28.4955 573.906 29.5628 575.906C32.1717 580.618 39.4054 590.829 42.7258 594.542C46.4019 598.683 50.4338 600.897 62.1738 605.181C70.119 608.109 77.2935 612.036 82.867 616.463C85.8909 618.891 92.5317 626.745 93.6583 629.316C94.1326 630.244 95.615 633.314 96.9194 635.956C99.3504 640.74 101.9 646.809 107.296 660.376L109.964 667.088L112.988 663.946C131.961 644.596 147.14 629.03 171.569 603.824C187.578 587.33 202.223 572.407 204.121 570.622C206.077 568.837 209.813 565.052 212.422 562.268C215.09 559.483 217.877 556.555 218.707 555.77C222.442 551.986 230.862 543.346 263.473 509.786C282.743 490.007 300.709 471.514 303.496 468.801C307.765 464.588 314.583 457.662 332.253 439.525C333.913 437.883 349.21 422.103 366.346 404.466C383.482 386.829 399.491 370.478 401.922 368.122C404.353 365.765 426.706 342.845 451.609 317.068C476.512 291.363 498.628 268.585 500.822 266.515C506.988 260.588 508.53 259.089 535.33 231.455C549.205 217.175 561.894 204.108 563.494 202.466C565.155 200.752 572.626 193.112 580.096 185.329C587.627 177.617 596.283 168.835 599.367 165.836C604.347 160.98 612.53 152.769 614.664 150.341C616.206 148.627 603.991 142.201 594.386 139.631C584.899 137.131 568.534 131.776 565.866 130.348C564.265 129.42 561.716 128.063 560.233 127.278C553.296 123.493 547.367 115.068 546.3 107.285C545.707 103.001 545.054 103.572 544.639 108.713C544.284 113.854 545.944 127.206 547.841 133.49C551.043 144.343 554.304 156.696 554.067 156.982C553.889 157.124 552.94 156.482 551.932 155.482C549.323 152.769 539.303 146.2 534.145 143.701C531.714 142.558 527.148 140.773 524.065 139.702C520.982 138.631 517.246 137.346 515.764 136.774C514.281 136.203 510.19 134.989 506.573 133.99C495.486 130.919 484.101 126.635 482.204 124.921C481.848 124.564 480.188 123.422 478.528 122.351C474.437 119.638 470.523 114.996 468.745 110.712L467.262 107.142L467.381 115.496C467.559 129.063 469.575 134.204 479.299 146.414C488.074 157.481 491.454 164.693 491.454 172.619C491.454 181.544 488.786 182.758 481.908 177.189C473.369 170.263 462.222 154.482 457.598 142.915C455.404 137.346 451.846 126.421 450.838 122.137C449.771 117.71 444.731 107.356 441.707 103.429C438.387 99.0734 431.331 92.8613 428.603 91.7902C425.579 90.6478 414.195 83.436 409.926 79.9373C405.657 76.4385 400.795 70.7262 400.676 69.0125C400.38 66.3706 398.838 90.0052 398.898 94.932C399.076 103.143 400.558 107.856 408.384 124.422C409.452 126.707 410.223 128.563 410.045 128.563C409.926 128.563 408.562 126.778 407.08 124.564C403.76 119.78 391.842 106.785 386.505 102.287C382.236 98.645 374.173 93.5753 367.828 90.3622C351.226 82.1508 343.933 75.7959 340.554 66.6562C338.893 62.2292 336.937 52.8039 336.047 45.2352C334.031 27.7413 330.474 19.1015 319.386 5.10643C316.836 1.96468 314.761 -0.320231 314.761 0.036786Z" fill="url(#paint0_linear_8_228)"/>
<defs>
<linearGradient id="paint0_linear_8_228" x1="159" y1="309.5" x2="289" y2="447" gradientUnits="userSpaceOnUse">
<stop stop-color="#E5063A"/>
<stop offset="1" stop-color="#7F0320"/>
</linearGradient>
</defs>
</svg>
