<svg width="604" height="587" viewBox="0 0 604 587" fill="none" xmlns="http://www.w3.org/2000/svg">
<path d="M330.473 -54.2034C285.809 -66.0523 235.919 -65.4801 166.522 -52.3801C114.41 -42.513 34.9433 -20.7542 -5.4576 -5.26269C-47.3311 10.8113 -89.8319 35.4445 -124.137 63.5514C-134.419 72.0662 -155.282 91.8937 -163.905 101.481C-204.898 146.891 -230.489 198.157 -237.762 249.148C-243.94 293.008 -227.24 337.342 -186.244 386.041C-117.055 468.163 21.3351 549.076 138.961 576.164C197.089 589.589 250.481 590.303 294.808 578.369C341.436 565.76 379.7 538.777 406.609 499.428C418.182 482.532 425.137 468.829 434.209 445.397L441.319 427.125L446.685 432.533C455.944 441.949 469.819 452.862 476.243 455.751C477.988 456.59 478.286 456.501 479.836 454.625C486.65 446.356 494.176 429.295 495.733 418.566C497.967 402.931 496.403 387.355 490.905 371.126C487.111 359.819 478.503 343.042 471.798 333.706C470.004 331.197 468.533 329.07 468.597 328.895C468.64 328.779 470.199 329.946 472.16 331.46C500.91 354.711 536.528 357.289 574.514 338.993C578.545 337.038 584.24 333.975 587.224 332.164C593.453 328.372 603.114 321.546 603.435 320.672C603.906 319.391 597.792 307.364 594.162 302.462C589.642 296.373 585.94 292.568 579.23 287.393C570.522 280.625 564.942 277.782 550.293 272.401C536.345 267.276 529.376 265.509 514.926 263.373C510.833 262.794 507.43 262.139 507.357 261.979C506.987 261.183 519.032 260.85 534.379 261.267C556.762 261.824 561.028 261.21 562.461 257.309C563.403 254.747 560.819 249.7 557.103 247.013C550.599 242.179 538.236 241.933 522.554 246.216C519.461 247.063 516.984 247.673 517.07 247.44C517.134 247.265 518.608 245.957 520.381 244.559C542.54 226.794 565.394 192.894 585.323 148.204C590.424 136.663 592.97 129.734 592.152 129.433C589.993 128.64 578.175 127.272 572.434 127.212C558.027 126.942 547.596 129.19 533.618 135.686C528.115 138.224 520.92 142.123 517.648 144.358C505.683 152.585 490.71 168.099 480.07 183.356C478.162 186.026 476.462 188.309 476.383 188.346C476.223 188.419 479.716 178.732 484.08 166.853C492.578 143.541 494.861 135.524 498.425 116.808C501.849 98.8346 504.373 73.393 502.797 72.8141C502.038 72.5353 492.436 74.6913 488.205 76.1108C476.23 80.0384 463.968 88.3544 456.073 97.9444C452.648 102.039 452.148 102.318 451.834 100.286C451.46 96.9768 446.34 76.6572 444.096 69.4224C427.903 15.9564 401.4 -20.0834 362.749 -41.0899C356.613 -44.4016 336.502 -52.5833 330.473 -54.2034Z" fill="#E5063A"/>
</svg>
