<svg width="103" height="70" viewBox="0 0 103 70" fill="none" xmlns="http://www.w3.org/2000/svg">
<mask id="mask0_4_5" style="mask-type:luminance" maskUnits="userSpaceOnUse" x="0" y="0" width="103" height="70">
<path d="M0 0H102.35V70H0V0Z" fill="white"/>
</mask>
<g mask="url(#mask0_4_5)">
<path d="M17.2585 2.74345C16.5843 1.76737 15.6992 0.974045 14.5365 0.541006C11.6721 -0.528602 8.91193 -0.0600531 6.66888 2.37709C7.48801 2.82053 9.40826 3.67968 12.1155 3.7377C14.5434 3.7914 16.3292 3.17042 17.2585 2.74345Z" fill="#3E1860"/>
<path d="M7.01581 4.79872C7.24402 4.81778 7.4436 4.64629 7.46095 4.41938C7.47917 4.18987 7.30823 3.99154 7.08002 3.97508C6.85181 3.95603 6.65224 4.12838 6.63489 4.35443C6.61753 4.58307 6.7876 4.78054 7.01581 4.79872Z" fill="#3E1860"/>
<path d="M12.7038 5.58449C12.932 5.60267 13.1316 5.43206 13.1489 5.20514C13.1672 4.97736 12.9962 4.77557 12.768 4.75911C12.5398 4.74266 12.3402 4.91327 12.3229 5.14019C12.3055 5.36797 12.4756 5.5663 12.7038 5.58449Z" fill="#3E1860"/>
<path d="M16.8242 5.14295C17.0524 5.16027 17.252 4.99052 17.2693 4.76274C17.2876 4.5341 17.1166 4.3349 16.8884 4.31758C16.6602 4.29939 16.4606 4.47087 16.4441 4.69778C16.4259 4.92643 16.596 5.12476 16.8242 5.14295Z" fill="#3E1860"/>
<path d="M33.3913 11.0085C33.5457 11.0102 33.6715 11.1349 33.6707 11.29C33.6707 11.4432 33.544 11.568 33.3895 11.568C33.2351 11.568 33.1093 11.4415 33.1093 11.2891C33.1101 11.1341 33.2368 11.0085 33.3913 11.0085ZM34.5861 9.6418L34.5037 11.0301L33.2681 10.2359L34.5861 9.6418ZM34.613 13.0983L33.2993 12.4566L34.6364 11.7282L34.613 13.0983ZM34.7978 15.7061L33.4642 14.9864L34.8022 14.2762L34.7978 15.7061ZM33.5943 16.5219C33.5952 16.3669 33.721 16.2431 33.8772 16.2439C34.0316 16.2448 34.1566 16.3686 34.1566 16.5237C34.1557 16.6778 34.0299 16.8034 33.8755 16.8025C33.7193 16.8025 33.5943 16.6761 33.5943 16.5219ZM34.9237 18.3901L33.649 17.6712L34.8508 17.0182L34.9237 18.3901ZM35.0712 20.6505L33.6802 19.9698L34.9983 19.2397L35.0712 20.6505ZM35.2751 22.95L33.7505 22.1133L35.2603 21.5591L35.2751 22.95ZM35.5762 25.7864L34.3596 24.974L35.5423 24.3019L35.5762 25.7864ZM35.8565 28.4747L34.6017 27.7169L35.7653 27.0067L35.8565 28.4747ZM34.2954 26.7971C34.141 26.7962 34.0152 26.6715 34.0152 26.5174C34.016 26.3632 34.1427 26.2368 34.2972 26.2368C34.4525 26.2376 34.5774 26.3632 34.5766 26.5191C34.5766 26.6733 34.4508 26.7971 34.2954 26.7971ZM33.6767 23.7338C33.6767 23.5805 33.8034 23.4558 33.9579 23.4558C34.1132 23.4566 34.239 23.5831 34.2382 23.7364C34.2382 23.8905 34.1115 24.0161 33.9562 24.0161C33.8017 24.0153 33.6759 23.8905 33.6767 23.7338ZM33.4711 18.9175C33.4711 18.7625 33.5978 18.6369 33.7522 18.6369C33.9067 18.6378 34.0325 18.7642 34.0316 18.9192C34.0316 19.0743 33.905 19.1973 33.7505 19.1973C33.5952 19.1964 33.4702 19.0717 33.4711 18.9175ZM33.5318 21.1078C33.5318 20.9528 33.6577 20.8281 33.813 20.829C33.9674 20.8298 34.0924 20.9545 34.0924 21.1096C34.0915 21.2646 33.9657 21.3884 33.8104 21.3884C33.6551 21.3884 33.531 21.2629 33.5318 21.1078ZM33.3331 13.7999C33.3349 13.6448 33.4598 13.5175 33.6151 13.5184C33.7696 13.5184 33.8954 13.6466 33.8945 13.8016C33.8945 13.9549 33.7687 14.0805 33.6125 14.0787C33.4581 14.0787 33.3331 13.9531 33.3331 13.7999ZM25.2209 26.8932L24.1631 25.1316L24.7063 24.8259L25.2634 25.8687L25.8283 24.8294L26.3298 25.1005L25.2209 26.8932ZM25.1471 28.505C24.9493 28.5041 24.7896 28.3422 24.7905 28.1456C24.7913 27.9499 24.9519 27.7896 25.1497 27.7905C25.3467 27.7914 25.5072 27.9516 25.5063 28.1482C25.5055 28.3448 25.3449 28.505 25.1471 28.505ZM25.1428 29.805C24.9458 29.8041 24.7853 29.6448 24.7861 29.4473C24.787 29.2498 25.5029 29.2507 25.502 29.4499C25.5003 29.6456 25.3406 29.8059 25.1428 29.805ZM24.5423 22.0051L25.2929 23.0297L25.8569 22.0683L26.2821 22.3784L25.2321 23.9373L24.1154 22.4286L24.5423 22.0051ZM24.2994 19.3202L25.0699 20.2677L25.5376 19.2475L26.1372 19.4805L25.0664 21.1953L23.9497 19.7238L24.2994 19.3202ZM23.9974 17.0797L24.5388 16.9065L25.1749 17.8938L25.8361 16.8155L26.1832 17.2399L25.2304 18.7045C25.2304 18.7045 23.9392 17.0797 23.9974 17.0797ZM24.6447 14.3386L25.1844 15.1717L25.7094 14.2649L26.2318 14.3056L25.3363 15.9832L24.0451 14.3377L24.6447 14.3386ZM25.4282 12.6991C25.4274 12.8965 25.2669 13.0559 25.069 13.055C24.872 13.0542 24.7124 12.8939 24.7133 12.6965C24.7141 12.4999 24.8746 12.3422 25.0725 12.3431C25.2695 12.3431 25.4282 12.5025 25.4282 12.6991ZM25.0135 10.4862C25.2105 10.4871 25.3692 10.6491 25.3684 10.8457C25.3684 11.0423 25.2078 11.2025 25.01 11.2016C24.813 11.2007 24.6534 11.0405 24.6542 10.8422C24.6542 10.6465 24.8148 10.4854 25.0135 10.4862ZM36.8717 30.529L35.9033 8.53842L31.6012 8.71943L32.3309 19.2908L26.8574 19.9551L26.6899 17.8808L27.2999 8.57479L23.4447 8.55574L22.7271 31.1959L27.745 30.9526L26.9919 21.6188L32.4724 21.3399L32.7197 24.9116L31.6567 30.6399L36.8717 30.529Z" fill="#3E1860"/>
<path d="M5.39859 10.8021L7.3414 9.42594L8.34622 11.5903L10.2535 10.0071L10.6431 10.9139C11.608 8.17532 12.9078 7.07973 14.6953 7.64701C17.0546 8.3979 17.2767 12.2476 17.2767 12.2476L19.3506 12.407C19.3506 12.407 19.5771 8.7989 18.5497 5.5026C18.2338 5.8395 17.7835 6.14523 17.1787 6.16515C15.799 6.21192 14.953 4.62006 14.953 4.62006C14.953 4.62006 14.3873 6.66228 12.5633 6.52197C10.7376 6.37994 10.0148 4.54212 10.0148 4.54212C10.0148 4.54212 8.74537 6.43017 6.75049 5.86808C5.74221 5.58488 5.2424 5.13365 4.99337 4.75517C4.22197 6.15735 3.55122 7.89038 3.00543 9.98369L4.2775 8.83267L5.39859 10.8021Z" fill="#3E1860"/>
<path d="M10.5773 25.0594C10.4514 24.7398 10.3369 24.409 10.2328 24.0669C9.84839 24.3033 8.74899 24.8819 6.72895 25.2041C6.25344 25.2794 5.82479 25.3461 5.44039 25.4059L5.43866 25.4102L5.43605 25.4067C4.46595 25.5566 3.78306 25.6544 3.3761 25.7116C3.49324 26.0234 3.61906 26.3308 3.75182 26.6305C4.63689 26.6028 6.10159 26.4971 7.6253 26.1377C9.09087 25.793 10.0454 25.3548 10.5773 25.0594Z" fill="#3E1860"/>
<path d="M4.12023 18.0818L5.24132 20.0504L3.34276 20.2106L4.12023 18.0818ZM7.23446 18.0177L8.20544 19.9759L6.36848 19.9846L7.23446 18.0177ZM5.43656 25.4071L5.44003 25.4062L6.4379 23.0436L8.03883 24.7454L8.81978 22.5672L10.1344 23.7295C9.45061 21.2776 9.29268 18.3667 9.53217 15.927C8.32258 15.9686 6.52901 15.9599 4.50723 15.7191C3.5137 15.6022 2.72061 15.5 2.08804 15.4125C1.83554 18.8119 2.17655 22.2277 3.1857 25.1837L3.89116 23.6611L5.43656 25.4071Z" fill="#3E1860"/>
<path d="M9.66089 14.894C9.69647 14.6627 9.73465 14.4393 9.7789 14.2219C9.93943 13.4052 10.1138 12.6638 10.3021 11.9943L9.83964 11.4002L8.14239 12.8959L6.9892 10.671L5.09845 12.0506L3.96868 10.1825L2.65583 11.4487C2.43283 12.4941 2.26623 13.5585 2.15863 14.6307C3.04977 14.7398 4.23681 14.8455 5.6937 14.8948C7.43 14.9529 8.75934 14.9321 9.66089 14.894Z" fill="#3E1860"/>
<path d="M9.53246 31.7816C9.53246 31.7816 8.31679 30.3647 8.9294 29.7004C9.542 29.0353 11.3113 29.884 11.3113 29.884C11.3113 29.884 10.244 28.5286 10.7941 28.0107C11.3425 27.4937 12.7126 28.2619 12.7126 28.2619C12.7126 28.2619 12.6588 28.1779 12.5851 28.0471C11.8762 27.4711 11.3009 26.6527 10.8436 25.6801C10.1659 26.0179 8.84696 26.6016 7.09852 27.0138C5.83599 27.3118 4.8225 27.388 4.11011 27.388C4.95179 29.0457 6.05379 30.4799 7.43693 31.5798C7.44821 31.4863 7.47597 31.4005 7.52891 31.3217C7.98966 30.6453 9.53246 31.7816 9.53246 31.7816Z" fill="#3E1860"/>
<path d="M22.0441 24.1096C22.0441 24.1096 19.5945 29.4083 14.7032 28.9363C14.1348 28.88 13.6203 28.7085 13.1517 28.44C12.7404 29.067 12.1955 29.811 11.5135 30.561C10.3395 31.8523 9.54983 32.4465 9.1637 32.695C10.2214 33.2372 11.4024 33.6157 12.7144 33.795C22.1872 35.0958 24.4901 24.346 24.4901 24.346L22.0441 24.1096Z" fill="#3E1860"/>
<path d="M52.3204 29.4203C52.1868 28.8608 53.1413 28.5672 53.1413 28.5672L53.3565 29.7555C53.3565 29.7555 52.4549 29.9815 52.3204 29.4203ZM51.1855 25.6529C51.1048 25.0596 52.061 24.7002 52.061 24.7002L52.3308 25.8893C52.3308 25.8893 51.2653 26.247 51.1855 25.6529ZM50.0496 21.9859C49.9143 21.5892 50.7074 21.0306 50.7074 21.0306L51.0588 22.0231C51.0588 22.0231 50.1859 22.3825 50.0496 21.9859ZM49.2964 18.1552C49.1889 17.8226 49.8448 17.3974 49.8448 17.3974L50.1416 18.1569C50.1416 18.1569 49.4049 18.4843 49.2964 18.1552ZM48.2144 14.4856C48.053 13.9573 48.9546 13.5979 48.9546 13.5979L49.306 14.5896C49.306 14.5896 48.3775 15.0148 48.2144 14.4856ZM47.2703 10.9191C47.1627 10.422 47.9541 10.1301 47.9541 10.1301L48.1979 11.1209C48.1979 11.1209 47.3779 11.4136 47.2703 10.9191ZM46.2438 7.08498C46 6.58958 46.8755 6.26394 46.8755 6.26394L47.1714 7.15426C47.1714 7.15426 46.4877 7.58211 46.2438 7.08498ZM44.0294 18.1024L44.7661 10.4887L45.1852 10.4895L46.7861 17.898L44.0294 18.1024ZM47.0656 4.55862L42.8415 4.54044L37.0244 30.1132L42.8459 30.3202L43.8975 19.4587L47.2053 19.8406L49.5047 30.4873L55.2524 30.5098L47.0656 4.55862Z" fill="#3E1860"/>
<path d="M90.2851 30.672C90.1515 30.019 91.106 29.6778 91.106 29.6778L91.3212 31.0626C91.3212 31.0626 90.4196 31.3268 90.2851 30.672ZM89.1501 26.2888C89.0703 25.5977 90.0257 25.1793 90.0257 25.1793L90.2964 26.5625C90.2964 26.5625 89.23 26.9799 89.1501 26.2888ZM88.0143 22.0199C87.8789 21.5591 88.672 20.9104 88.672 20.9104L89.0235 22.0649C89.0235 22.0649 88.1497 22.4824 88.0143 22.0199ZM87.2611 17.563C87.1527 17.1785 87.8087 16.6814 87.8087 16.6814L88.1063 17.5656C88.1063 17.5656 87.3687 17.9458 87.2611 17.563ZM86.1799 13.2941C86.0177 12.6775 86.9192 12.2618 86.9192 12.2618L87.2707 13.4154C87.2707 13.4154 86.3431 13.9099 86.1799 13.2941ZM85.2359 9.14128C85.1274 8.56534 85.9196 8.2241 85.9196 8.2241L86.1617 9.37685C86.1617 9.37685 85.3435 9.71809 85.2359 9.14128ZM84.2085 4.68184C83.9655 4.10416 84.8393 3.72395 84.8393 3.72395L85.1361 4.76411C85.1361 4.76411 84.4532 5.25951 84.2085 4.68184ZM81.9941 17.5007L82.7299 8.64155L83.149 8.64242L84.75 17.2642L81.9941 17.5007ZM85.0302 1.7415L80.8079 1.72158L74.9882 31.4783L80.8105 31.7191L81.8631 19.0795L85.1708 19.5238L87.4711 31.9122L93.2163 31.9391L85.0302 1.7415Z" fill="#3E1860"/>
<path d="M69.051 10.6406C69.1898 10.6423 69.3018 10.7705 69.3009 10.9264C69.3 11.0849 69.1881 11.2113 69.0493 11.2113C68.9104 11.2105 68.7994 11.0814 68.7994 10.9246C68.8002 10.7679 68.9139 10.6406 69.051 10.6406ZM70.199 8.51954L70.2892 10.0309C70.2892 10.0309 69.0588 10.0473 68.9955 9.30248C68.9286 8.55592 70.199 8.51954 70.199 8.51954ZM70.625 13.1323C70.625 13.1323 69.169 12.8967 69.1811 12.2506C69.1924 11.6045 70.5539 11.5655 70.5539 11.5655L70.625 13.1323ZM70.9244 16.3091C70.9244 16.3091 69.3799 16.1177 69.3642 15.3728C69.3469 14.6289 70.7856 14.4816 70.7856 14.4816L70.9244 16.3091ZM71.1578 18.8423C71.1578 18.8423 69.7174 18.9341 69.6046 18.1677C69.4918 17.4003 71.0276 17.2522 71.0276 17.2522L71.1578 18.8423ZM71.524 21.7013C71.524 21.7013 69.8632 21.664 69.8458 20.8525C69.8293 20.041 71.3851 19.9371 71.3851 19.9371L71.524 21.7013ZM71.8416 24.6485C71.8416 24.6485 70.3161 24.7741 70.1547 23.9401C69.9933 23.1087 71.6732 23.0264 71.6732 23.0264L71.8416 24.6485ZM72.1895 27.7941C72.1895 27.7941 70.4124 27.698 70.4255 26.857C70.4376 26.0118 72.042 25.8541 72.042 25.8541L72.1895 27.7941ZM72.3648 30.5102C72.3648 30.5102 70.6172 30.4166 70.6302 29.5869C70.6415 28.759 72.219 28.6013 72.219 28.6013L72.3648 30.5102ZM70.2311 28.6784C70.1001 28.6784 69.9942 28.558 69.9942 28.4117C69.9951 28.2618 70.1018 28.1423 70.2328 28.1432C70.363 28.1432 70.468 28.2644 70.468 28.4125C70.4671 28.5598 70.3604 28.6793 70.2311 28.6784ZM69.6679 25.4297C69.6688 25.2816 69.7738 25.163 69.9048 25.1639C70.035 25.1639 70.1408 25.2834 70.14 25.4315C70.14 25.5796 70.0332 25.7008 69.9031 25.7008C69.7721 25.7 69.6679 25.5787 69.6679 25.4297ZM69.4944 22.3517C69.4944 22.2045 69.6011 22.0832 69.7313 22.0841C69.8623 22.0841 69.969 22.2062 69.9682 22.3534C69.9673 22.5015 69.8614 22.6202 69.7295 22.6202C69.5994 22.6202 69.4935 22.4998 69.4944 22.3517ZM69.2428 19.5361C69.2436 19.3871 69.3495 19.2676 69.4814 19.2676C69.6107 19.2685 69.7165 19.3888 69.7157 19.5361C69.7148 19.6859 69.6089 19.8046 69.4796 19.8046C69.3477 19.8037 69.2419 19.6842 69.2428 19.5361ZM69.4319 16.5282C69.5621 16.529 69.6688 16.6503 69.6679 16.7984C69.6679 16.9465 69.5603 17.066 69.4302 17.0651C69.2992 17.0651 69.1942 16.9448 69.1942 16.7967C69.195 16.6486 69.3009 16.5282 69.4319 16.5282ZM69.0788 13.884C69.0788 13.7264 69.1924 13.5982 69.3313 13.5982C69.4684 13.6 69.5812 13.7273 69.5803 13.8858C69.5803 14.0434 69.4666 14.169 69.3295 14.1681C69.1907 14.1681 69.0779 14.0408 69.0788 13.884ZM60.1326 9.06084C59.986 9.05998 59.8671 8.9266 59.868 8.75945C59.8688 8.59403 59.9886 8.45892 60.1343 8.46065C60.281 8.46065 60.3981 8.59576 60.3981 8.76204C60.3973 8.92833 60.2767 9.06084 60.1326 9.06084ZM59.986 11.2919C59.8385 11.2919 59.7222 11.1568 59.7222 10.9913C59.7231 10.8242 59.8402 10.6917 59.9886 10.6925C60.1343 10.6925 60.2524 10.8259 60.2515 10.9931C60.2515 11.1585 60.1326 11.2927 59.986 11.2919ZM59.7508 13.3514C59.6059 13.3514 59.487 13.218 59.4879 13.0509C59.4879 12.8837 59.6076 12.7512 59.7543 12.7521C59.8992 12.7521 60.0181 12.8854 60.0172 13.0526C60.0172 13.218 59.8975 13.3523 59.7508 13.3514ZM59.6111 15.6612C59.4818 15.6612 59.3794 15.5426 59.3794 15.3962C59.3794 15.2481 59.4836 15.1329 59.612 15.1329C59.7413 15.1329 59.8454 15.2507 59.8445 15.3988C59.8445 15.5434 59.7395 15.6612 59.6111 15.6612ZM58.123 17.4246L58.3312 15.65L59.7152 16.6278L58.123 17.4246ZM59.4575 18.3504C59.3282 18.3487 59.2232 18.2318 59.2241 18.0854C59.2241 17.939 59.3291 17.8204 59.4593 17.8204C59.5868 17.8212 59.6909 17.9408 59.6901 18.0863C59.6901 18.2326 59.5851 18.3504 59.4575 18.3504ZM57.8609 20.0557L58.0197 18.1954L59.5781 19.317L57.8609 20.0557ZM59.2961 20.8958C59.1668 20.8958 59.0645 20.7763 59.0645 20.6299C59.0653 20.4844 59.1686 20.3658 59.2987 20.3658C59.4272 20.3666 59.5313 20.4862 59.5313 20.6325C59.5304 20.7772 59.4254 20.8958 59.2961 20.8958ZM59.264 23.3581C59.1339 23.3572 59.0297 23.2368 59.0306 23.0913C59.0306 22.9458 59.1356 22.8263 59.2658 22.8263C59.3933 22.828 59.4983 22.9476 59.4983 23.0922C59.4974 23.2386 59.3916 23.3581 59.264 23.3581ZM58.9759 26.2733C58.8458 26.2724 58.7443 26.1547 58.7443 26.0083C58.7451 25.8619 58.8484 25.7433 58.9777 25.7433C59.1061 25.7441 59.2111 25.8636 59.2102 26.01C59.2085 26.1555 59.1044 26.2733 58.9759 26.2733ZM58.7642 29.1651C58.6349 29.1643 58.5317 29.0448 58.5317 28.8984C58.5325 28.752 58.6367 28.6342 58.7651 28.6351C58.8961 28.6351 59.0002 28.7529 58.9985 28.9001C58.9985 29.0456 58.8944 29.1651 58.7642 29.1651ZM56.6132 31.2368L56.7954 29.1773L58.4067 30.1837L56.6132 31.2368ZM57.1607 26.3192L58.7182 27.6123L56.9759 28.2341L57.1607 26.3192ZM57.5477 23.3719L59.0324 24.4364L57.2891 25.2591L57.5477 23.3719ZM57.8089 20.7702L59.3187 21.9767L57.6527 22.544L57.8089 20.7702ZM58.4137 13.2752L59.7482 14.195L58.3078 14.9346L58.4137 13.2752ZM58.4978 11.0433L59.605 11.9639L58.3911 12.5884L58.4978 11.0433ZM58.6566 8.63993L59.9139 9.64631L58.5516 10.4145L58.6566 8.63993ZM74.9879 31.5287L71.7496 7.59111L67.7989 7.55473L64.3714 19.0632L61.4272 7.53395L56.3442 7.51576L54.194 31.9401L61.4845 31.8491L60.4571 16.7213L62.4121 25.15L66.3732 25.0712L67.9759 16.5264L67.5993 31.7591L74.9879 31.5287Z" fill="#3E1860"/>
<path d="M3.73985 38.3379H0V70H3.73985V56.4537L17.9747 65.7822L17.9955 59.4745L8.05587 54.1386L17.5539 48.484L17.4385 43.763V38.3379H3.73985ZM3.73985 42.0741C4.02099 42.0265 7.63416 42.0802 7.63416 42.0802L12.9316 43.6227L3.73985 51.1688V42.0741ZM14.8961 44.8707C14.8961 44.8707 15.7777 44.313 15.8063 44.2471C15.867 44.3329 16.517 45.2726 16.0718 45.6718C16.0041 45.7333 15.9313 45.7584 15.8558 45.7584C15.415 45.7584 14.8961 44.8707 14.8961 44.8707ZM12.9316 46.0243C12.9316 46.0243 13.814 45.4674 13.8427 45.4007C13.9025 45.4856 14.5525 46.4262 14.1082 46.8254C14.0405 46.8869 13.9676 46.9121 13.8921 46.9121C13.4513 46.9121 12.9316 46.0243 12.9316 46.0243ZM10.7805 47.617L11.7497 46.8021C11.7497 46.8021 12.653 47.5183 12.2929 48.1254C12.2166 48.2562 12.1046 48.3073 11.9719 48.3073C11.492 48.3073 10.7805 47.617 10.7805 47.617ZM8.84809 49.0833L9.96484 48.3099C9.96484 48.3099 10.8239 49.3847 10.3588 49.8645C10.285 49.9433 10.1957 49.9762 10.0985 49.9762C9.58652 49.9762 8.84809 49.0833 8.84809 49.0833ZM6.91656 50.6154L7.88579 49.8628C7.88579 49.8628 8.59906 50.8519 8.25891 51.3126C8.20251 51.388 8.12962 51.4209 8.04285 51.4209C7.61594 51.4209 6.91656 50.6154 6.91656 50.6154ZM3.71122 55.7287L5.93691 54.9467L5.62974 56.9759L3.71122 55.7287ZM6.19288 57.3925L8.45675 56.4606L8.33614 58.676L6.19288 57.3925ZM8.58604 59.2658L10.4629 58.2967L10.2685 60.3926L8.58604 59.2658ZM10.6208 60.6628L12.7051 59.8418L12.3849 61.8112L10.6208 60.6628ZM12.8639 62.0208L14.5724 61.0915L14.5872 63.0653L12.8639 62.0208ZM14.8761 63.274L16.6688 62.4287L16.6419 64.3584L14.8761 63.274Z" fill="#3E1860"/>
</g>
<mask id="mask1_4_5" style="mask-type:luminance" maskUnits="userSpaceOnUse" x="0" y="38" width="18" height="32">
<path d="M3.73985 38.3379H0V70H3.73985V56.4537L17.9747 65.7822L17.9955 59.4745L8.05587 54.1386L17.5539 48.484L17.4385 43.763V38.3379H3.73985ZM3.73985 42.0741C4.02099 42.0265 7.63416 42.0802 7.63416 42.0802L12.9316 43.6227L3.73985 51.1688V42.0741ZM14.8961 44.8707C14.8961 44.8707 15.7777 44.3129 15.8063 44.2471C15.867 44.3329 16.517 45.2726 16.0718 45.6718C16.0041 45.7333 15.9313 45.7584 15.8558 45.7584C15.415 45.7584 14.8961 44.8707 14.8961 44.8707ZM12.9316 46.0243C12.9316 46.0243 13.814 45.4674 13.8427 45.4007C13.9025 45.4856 14.5525 46.4262 14.1082 46.8254C14.0405 46.8869 13.9676 46.9121 13.8921 46.9121C13.4513 46.9121 12.9316 46.0243 12.9316 46.0243ZM10.7805 47.617L11.7497 46.8021C11.7497 46.8021 12.653 47.5183 12.2929 48.1254C12.2166 48.2562 12.1046 48.3073 11.9719 48.3073C11.492 48.3073 10.7805 47.617 10.7805 47.617ZM8.84809 49.0833L9.96484 48.3099C9.96484 48.3099 10.8239 49.3847 10.3588 49.8645C10.285 49.9433 10.1957 49.9762 10.0985 49.9762C9.58652 49.9762 8.84809 49.0833 8.84809 49.0833ZM6.91656 50.6154L7.8858 49.8628C7.8858 49.8628 8.59906 50.8519 8.25891 51.3126C8.20251 51.388 8.12962 51.4209 8.04285 51.4209C7.61594 51.4209 6.91656 50.6154 6.91656 50.6154ZM3.71122 55.7287L5.93691 54.9467L5.62974 56.9759L3.71122 55.7287ZM6.19288 57.3925L8.45675 56.4606L8.33614 58.676L6.19288 57.3925ZM8.58604 59.2658L10.4629 58.2967L10.2685 60.3926L8.58604 59.2658ZM10.6208 60.6628L12.7051 59.8418L12.3849 61.8112L10.6208 60.6628ZM12.8639 62.0208L14.5724 61.0915L14.5872 63.0653L12.8639 62.0208ZM14.8761 63.274L16.6688 62.4287L16.6419 64.3584L14.8761 63.274Z" fill="white"/>
</mask>
<g mask="url(#mask1_4_5)">
<path d="M-89.9612 191.945H192.914V-90.3971H-89.9612V191.945Z" fill="#3E1860"/>
<path d="M0 69.9991H17.9955V38.3361H0V69.9991Z" fill="#3E1860"/>
</g>
<mask id="mask2_4_5" style="mask-type:luminance" maskUnits="userSpaceOnUse" x="0" y="0" width="103" height="70">
<path d="M0 0H102.35V70H0V0Z" fill="white"/>
</mask>
<g mask="url(#mask2_4_5)">
<path d="M45.916 34.4829L47.6844 60.0695L39.1192 34.2543L33.0252 34.2249L31.8937 70L39.8229 69.6146L38.156 48.9603L46.0045 69.1227L54.2435 68.9451L52.7128 34.1971L45.916 34.4829ZM48.5487 36.8794L50.6312 35.938L50.5019 38.1361L48.5487 36.8794ZM34.9385 37.8399C34.9385 37.5281 35.1919 37.2743 35.506 37.2752C35.8175 37.2761 36.0709 37.5289 36.0683 37.8407C36.0674 38.1517 35.8141 38.402 35.5052 38.402H35.5008C35.1902 38.4011 34.9377 38.1491 34.9385 37.8399ZM48.3005 38.5414C48.3005 38.2972 48.5001 38.0997 48.7456 38.0997C48.9895 38.1014 49.1882 38.2989 49.1873 38.5431C49.1864 38.7882 48.9877 38.9857 48.7422 38.9857C48.4975 38.9857 48.2996 38.7856 48.3005 38.5414ZM48.5999 40.3879L50.7136 39.2351L50.6746 41.4029L48.5999 40.3879ZM35.0314 40.7664C35.0323 40.4563 35.2856 40.2034 35.598 40.2051C35.9087 40.206 36.1629 40.4598 36.1603 40.7716C36.1594 41.0825 35.9069 41.3345 35.5945 41.3336C35.2822 41.3328 35.0288 41.0781 35.0314 40.7664ZM48.6528 42.508C48.6528 42.2655 48.8524 42.0655 49.0971 42.0672C49.3435 42.0672 49.5422 42.2673 49.5405 42.5115C49.5396 42.7566 49.34 42.9523 49.0936 42.9523C48.8498 42.9523 48.6528 42.7549 48.6528 42.508ZM36.6063 43.2485L37.4298 43.31L36.0163 45.9602L33.9763 43.3594L34.9229 43.3637L35.7759 44.6776L36.6063 43.2485ZM48.8619 44.3866L50.9739 43.2633L50.9644 45.522L48.8619 44.3866ZM49.0676 46.8107C49.0684 46.5691 49.2654 46.3699 49.511 46.3716C49.7557 46.3716 49.9561 46.5708 49.9535 46.8177C49.9526 47.0602 49.753 47.2568 49.5084 47.2568C49.2645 47.2559 49.0667 47.0567 49.0676 46.8107ZM36.805 47.2741L37.3551 47.9479L35.8497 50.262C35.8497 50.262 33.807 47.6924 33.8999 47.6924L34.7581 47.4196L35.762 48.9785L36.805 47.2741ZM49.1509 48.6286L51.052 47.5971L51.1666 49.7649L49.1509 48.6286ZM48.8706 50.5955C48.8715 50.3513 49.0693 50.1538 49.3149 50.1547C49.5604 50.1555 49.7591 50.3539 49.7583 50.599C49.7557 50.8441 49.5578 51.0407 49.3123 51.0398C49.0676 51.0398 48.8706 50.8397 48.8706 50.5955ZM49.2012 52.2592L51.2846 51.1056L51.3991 53.3349L49.2012 52.2592ZM36.3356 51.1177L37.2814 51.4884L35.5893 54.1966L33.8244 51.8712L34.378 51.2329L35.5945 52.733L36.3356 51.1177ZM48.9652 54.0589C48.966 53.8138 49.1665 53.6164 49.4112 53.6164C49.655 53.6172 49.8528 53.819 49.8528 54.0615C49.852 54.3058 49.6533 54.5032 49.412 54.5032H49.4094C49.163 54.5032 48.9643 54.304 48.9652 54.0589ZM49.3123 55.6473L51.6993 54.77L51.7219 56.9681L49.3123 55.6473ZM34.0865 56.1436L34.7607 55.4767L35.9486 57.0954L36.8397 55.572L37.5105 56.063L35.8514 58.5314L34.0865 56.1436ZM49.1968 58.2101C49.1977 57.965 49.3955 57.7684 49.6402 57.7701C49.8858 57.7701 50.0836 57.9676 50.0828 58.2135C50.0819 58.456 49.8823 58.6526 49.6385 58.6526C49.3938 58.6518 49.196 58.4534 49.1968 58.2101ZM50.2737 60.1657L52.1445 59.1039L52.1974 61.4553L50.2737 60.1657ZM34.1637 60.416L35.021 59.931L35.9008 61.5826L36.7946 59.937L37.5859 60.3666L35.834 63.1995L34.1637 60.416ZM49.7305 62.6045C49.7314 62.3603 49.9318 62.1637 50.1756 62.1637C50.4212 62.1654 50.6199 62.3629 50.6182 62.6089C50.6164 62.8531 50.4186 63.0488 50.1739 63.0488C49.9292 63.048 49.7296 62.8496 49.7305 62.6045ZM50.6563 64.5013L52.4959 63.378L52.6425 65.6982L50.6563 64.5013ZM35.1546 65.1785C35.1563 64.8693 35.4097 64.6164 35.7195 64.6173C36.0319 64.619 36.2844 64.8737 36.2826 65.1837C36.2826 65.4947 36.0293 65.745 35.7178 65.745C35.4054 65.745 35.152 65.4912 35.1546 65.1785ZM35.1477 67.2355C35.1494 66.9246 36.2783 66.928 36.2774 67.2415C36.2766 67.5507 36.0215 67.8019 35.7117 67.8019C35.3984 67.801 35.1468 67.5481 35.1477 67.2355Z" fill="#3E1860"/>
</g>
<mask id="mask3_4_5" style="mask-type:luminance" maskUnits="userSpaceOnUse" x="31" y="34" width="24" height="36">
<path d="M45.916 34.4829L47.6844 60.0695L39.1192 34.2543L33.0252 34.2249L31.8937 70L39.8229 69.6146L38.156 48.9603L46.0045 69.1227L54.2435 68.9451L52.7128 34.1971L45.916 34.4829ZM48.5487 36.8794L50.6312 35.938L50.5019 38.1361L48.5487 36.8794ZM34.9385 37.8399C34.9385 37.5281 35.1919 37.2743 35.506 37.2752C35.8175 37.2761 36.0709 37.5289 36.0683 37.8407C36.0674 38.1517 35.8141 38.402 35.5052 38.402H35.5008C35.1902 38.4011 34.9377 38.1491 34.9385 37.8399ZM48.3005 38.5414C48.3005 38.2972 48.5001 38.0997 48.7456 38.0997C48.9895 38.1014 49.1882 38.2989 49.1873 38.5431C49.1864 38.7882 48.9877 38.9857 48.7422 38.9857C48.4975 38.9857 48.2996 38.7856 48.3005 38.5414ZM48.5999 40.3879L50.7136 39.2351L50.6746 41.4029L48.5999 40.3879ZM35.0314 40.7664C35.0323 40.4563 35.2856 40.2034 35.598 40.2051C35.9087 40.206 36.1629 40.4598 36.1603 40.7715C36.1594 41.0825 35.9069 41.3345 35.5945 41.3336C35.2822 41.3328 35.0288 41.0781 35.0314 40.7664ZM48.6528 42.508C48.6528 42.2655 48.8524 42.0655 49.0971 42.0672C49.3435 42.0672 49.5422 42.2673 49.5405 42.5115C49.5396 42.7566 49.34 42.9523 49.0936 42.9523C48.8498 42.9523 48.6528 42.7549 48.6528 42.508ZM36.6063 43.2485L37.4298 43.31L36.0163 45.9602L33.9763 43.3594L34.9229 43.3637L35.7759 44.6776L36.6063 43.2485ZM48.8619 44.3866L50.9739 43.2633L50.9644 45.522L48.8619 44.3866ZM49.0676 46.8107C49.0684 46.5691 49.2654 46.3699 49.511 46.3716C49.7556 46.3716 49.9561 46.5708 49.9535 46.8176C49.9526 47.0602 49.753 47.2568 49.5084 47.2568C49.2645 47.2559 49.0667 47.0567 49.0676 46.8107ZM36.805 47.2741L37.3551 47.9479L35.8496 50.262C35.8496 50.262 33.807 47.6924 33.8999 47.6924L34.7581 47.4196L35.762 48.9785L36.805 47.2741ZM49.1509 48.6286L51.052 47.5971L51.1666 49.7649L49.1509 48.6286ZM48.8706 50.5955C48.8715 50.3513 49.0693 50.1538 49.3149 50.1547C49.5604 50.1555 49.7591 50.3539 49.7583 50.599C49.7557 50.8441 49.5578 51.0407 49.3123 51.0398C49.0676 51.0398 48.8706 50.8397 48.8706 50.5955ZM49.2012 52.2592L51.2846 51.1056L51.3991 53.3349L49.2012 52.2592ZM36.3356 51.1177L37.2814 51.4884L35.5893 54.1966L33.8244 51.8712L34.378 51.2329L35.5945 52.733L36.3356 51.1177ZM48.9652 54.0589C48.966 53.8138 49.1665 53.6164 49.4112 53.6164C49.655 53.6172 49.8528 53.819 49.8528 54.0615C49.852 54.3058 49.6533 54.5032 49.412 54.5032H49.4094C49.163 54.5032 48.9643 54.304 48.9652 54.0589ZM49.3123 55.6473L51.6993 54.77L51.7219 56.9681L49.3123 55.6473ZM34.0865 56.1436L34.7607 55.4767L35.9486 57.0954L36.8397 55.572L37.5105 56.063L35.8514 58.5314L34.0865 56.1436ZM49.1968 58.2101C49.1977 57.965 49.3955 57.7684 49.6402 57.7701C49.8858 57.7701 50.0836 57.9676 50.0828 58.2135C50.0819 58.456 49.8823 58.6526 49.6385 58.6526C49.3938 58.6518 49.196 58.4534 49.1968 58.2101ZM50.2737 60.1657L52.1445 59.1039L52.1974 61.4553L50.2737 60.1657ZM34.1637 60.416L35.021 59.931L35.9008 61.5826L36.7946 59.937L37.5859 60.3666L35.834 63.1995L34.1637 60.416ZM49.7305 62.6045C49.7314 62.3603 49.9318 62.1637 50.1756 62.1637C50.4212 62.1654 50.6199 62.3629 50.6182 62.6089C50.6164 62.8531 50.4186 63.0488 50.1739 63.0488C49.9292 63.048 49.7296 62.8496 49.7305 62.6045ZM50.6563 64.5013L52.4959 63.378L52.6425 65.6982L50.6563 64.5013ZM35.1546 65.1785C35.1563 64.8693 35.4097 64.6164 35.7195 64.6173C36.0319 64.619 36.2844 64.8737 36.2826 65.1837C36.2826 65.4947 36.0293 65.745 35.7178 65.745C35.4054 65.745 35.152 65.4912 35.1546 65.1785ZM35.1477 67.2355C35.1494 66.9246 36.2783 66.928 36.2774 67.2415C36.2766 67.5507 36.0215 67.8019 35.7117 67.8019C35.3984 67.801 35.1468 67.5481 35.1477 67.2355Z" fill="white"/>
</mask>
<g mask="url(#mask3_4_5)">
<path d="M-89.9612 191.945H192.914V-90.3971H-89.9612V191.945Z" fill="#3E1860"/>
<path d="M31.8937 69.9991H54.2435V34.1971H31.8937V69.9991Z" fill="#3E1860"/>
</g>
<mask id="mask4_4_5" style="mask-type:luminance" maskUnits="userSpaceOnUse" x="0" y="0" width="103" height="70">
<path d="M0 0H102.35V70H0V0Z" fill="white"/>
</mask>
<g mask="url(#mask4_4_5)">
<path d="M55.6458 34.6319L56.1239 62.7475C56.1239 62.7475 64.9477 64.0145 71.1596 61.6216C69.9717 60.7815 68.5565 59.5092 68.5409 58.1936C68.52 56.5004 70.2937 55.9409 71.2707 55.7608C70.4403 55.1416 68.9175 53.7411 69.0277 51.8782C69.1387 49.9927 71.0494 49.3406 72.1115 49.1197C71.2412 48.5819 69.7496 47.4187 69.6802 45.7316C69.6125 44.1025 70.9965 43.388 72.0664 43.1585C71.2907 42.5202 69.7947 41.0782 69.9344 39.5313C70.0316 38.4392 70.7292 37.8477 71.3627 37.5324C71.3349 37.5186 71.308 37.5004 71.2802 37.4865C65.7989 34.7688 57.566 34.6302 55.933 34.6302C55.7464 34.6302 55.6458 34.6319 55.6458 34.6319ZM57.5296 36.5122L59.0862 37.5342L57.5565 38.1967L57.5296 36.5122ZM66.7499 39.1485C66.3386 38.6055 66.3082 37.9083 66.3082 37.9083C66.3082 37.9083 67.0406 38.1647 67.4501 38.7692C67.8632 39.3746 67.8614 40.0726 67.8614 40.0726C67.8614 40.0726 67.1629 39.689 66.7499 39.1485ZM61.626 39.32C61.626 39.32 65.6332 40.0328 66.1486 47.3728C66.6657 54.7137 62.3653 55.9678 62.3653 55.9678L61.626 39.32ZM57.868 39.5313L59.4889 40.5524L57.9599 41.215L57.868 39.5313ZM67.4389 42.741C66.8991 42.1659 66.8696 41.5302 66.8696 41.5302C66.8696 41.5302 67.5039 41.6272 67.9812 42.0724C68.4576 42.5202 68.6441 43.252 68.6441 43.252C68.6441 43.252 68.6259 43.2537 68.5886 43.2537C68.4159 43.2537 67.8823 43.213 67.4389 42.741ZM58.019 42.3262L59.6398 43.1256L58.1404 43.9787L58.019 42.3262ZM67.5569 45.2267C67.1447 44.6845 67.2115 44.0826 67.2115 44.0826C67.2115 44.0826 67.7469 44.2056 68.1261 44.7148C68.5053 45.2232 68.6033 45.9932 68.6033 45.9932C68.6033 45.9932 67.9682 45.768 67.5569 45.2267ZM58.3591 45.2501L59.8195 45.9862L58.4493 46.9025L58.3591 45.2501ZM67.5161 47.8223C67.1369 47.2481 67.1369 46.6782 67.1369 46.6782C67.1369 46.6782 67.7426 46.7432 68.1556 47.3157C68.5652 47.8899 68.7873 48.5256 68.7873 48.5256C68.7873 48.5256 67.8953 48.3939 67.5161 47.8223ZM58.5387 48.3619L60.0963 49.3856L58.6298 50.1746L58.5387 48.3619ZM67.4441 50.2049C67.0328 49.726 66.8757 48.9629 66.8757 48.9629C66.8757 48.9629 67.7972 49.2843 68.1469 49.7623C68.4949 50.2395 68.6832 50.9705 68.6832 50.9705C68.6832 50.9705 67.8562 50.683 67.4441 50.2049ZM58.6888 51.3178L60.1501 52.1804L58.7791 53.2249L58.6888 51.3178ZM67.4996 52.9036C66.8965 52.1726 66.9634 51.3464 66.9634 51.3464C66.9634 51.3464 67.8536 51.8262 68.2953 52.4307C68.7404 53.0361 68.8316 53.7645 68.8316 53.7645C68.8316 53.7645 68.1001 53.638 67.4996 52.9036ZM58.7739 54.1144L60.3635 55.2308L58.7348 56.115L58.7739 54.1144ZM67.1395 55.4126C66.6657 54.6817 66.6024 54.2997 66.6024 54.2997C66.6024 54.2997 67.3339 54.4937 67.8085 55.0342C68.2849 55.5755 68.5053 56.4017 68.5053 56.4017C68.5053 56.4017 67.615 56.1445 67.1395 55.4126ZM66.8775 58.1434C66.3065 57.4748 66.2761 56.8062 66.2761 56.8062C66.2761 56.8062 66.7855 56.9049 67.294 57.4462C67.799 57.9892 68.0515 58.8155 68.0515 58.8155C68.0515 58.8155 67.4484 58.8129 66.8775 58.1434ZM58.7635 57.1959L60.4486 57.868L58.727 58.9419L58.7635 57.1959ZM58.76 59.4503L60.472 60.6559L58.7175 61.6094L58.76 59.4503Z" fill="#3E1860"/>
</g>
<mask id="mask5_4_5" style="mask-type:luminance" maskUnits="userSpaceOnUse" x="55" y="34" width="18" height="30">
<path d="M55.6458 34.6319L56.1239 62.7475C56.1239 62.7475 64.9477 64.0145 71.1596 61.6216C69.9717 60.7815 68.5565 59.5092 68.5409 58.1936C68.52 56.5004 70.2937 55.9409 71.2707 55.7608C70.4403 55.1416 68.9175 53.7411 69.0277 51.8782C69.1387 49.9927 71.0494 49.3406 72.1115 49.1197C71.2412 48.5819 69.7496 47.4187 69.6802 45.7316C69.6125 44.1025 70.9965 43.388 72.0664 43.1585C71.2907 42.5202 69.7947 41.0782 69.9344 39.5313C70.0316 38.4392 70.7292 37.8477 71.3627 37.5324C71.3349 37.5186 71.308 37.5004 71.2802 37.4865C65.7989 34.7688 57.566 34.6302 55.933 34.6302C55.7464 34.6302 55.6458 34.6319 55.6458 34.6319ZM57.5296 36.5122L59.0862 37.5342L57.5565 38.1967L57.5296 36.5122ZM66.7499 39.1485C66.3386 38.6055 66.3082 37.9083 66.3082 37.9083C66.3082 37.9083 67.0406 38.1647 67.4502 38.7692C67.8632 39.3746 67.8614 40.0726 67.8614 40.0726C67.8614 40.0726 67.1629 39.689 66.7499 39.1485ZM61.6261 39.32C61.6261 39.32 65.6332 40.0328 66.1486 47.3728C66.6657 54.7137 62.3653 55.9678 62.3653 55.9678L61.6261 39.32ZM57.868 39.5313L59.4889 40.5524L57.9599 41.215L57.868 39.5313ZM67.4389 42.741C66.8992 42.1659 66.8697 41.5302 66.8697 41.5302C66.8697 41.5302 67.504 41.6272 67.9812 42.0724C68.4576 42.5202 68.6441 43.252 68.6441 43.252C68.6441 43.252 68.6259 43.2537 68.5886 43.2537C68.4159 43.2537 67.8823 43.213 67.4389 42.741ZM58.019 42.3262L59.6398 43.1256L58.1404 43.9787L58.019 42.3262ZM67.5569 45.2267C67.1447 44.6845 67.2115 44.0826 67.2115 44.0826C67.2115 44.0826 67.7469 44.2056 68.1261 44.7148C68.5053 45.2232 68.6033 45.9932 68.6033 45.9932C68.6033 45.9932 67.9682 45.768 67.5569 45.2267ZM58.3591 45.2501L59.8195 45.9862L58.4493 46.9025L58.3591 45.2501ZM67.5161 47.8223C67.1369 47.2481 67.1369 46.6782 67.1369 46.6782C67.1369 46.6782 67.7426 46.7432 68.1556 47.3157C68.5652 47.8899 68.7873 48.5256 68.7873 48.5256C68.7873 48.5256 67.8953 48.3939 67.5161 47.8223ZM58.5387 48.3619L60.0963 49.3856L58.6298 50.1746L58.5387 48.3619ZM67.4441 50.2049C67.0328 49.726 66.8757 48.9629 66.8757 48.9629C66.8757 48.9629 67.7972 49.2843 68.1469 49.7623C68.4949 50.2395 68.6832 50.9705 68.6832 50.9705C68.6832 50.9705 67.8562 50.683 67.4441 50.2049ZM58.6888 51.3178L60.1501 52.1804L58.7791 53.2249L58.6888 51.3178ZM67.4996 52.9036C66.8966 52.1726 66.9634 51.3464 66.9634 51.3464C66.9634 51.3464 67.8536 51.8262 68.2953 52.4307C68.7404 53.0361 68.8316 53.7645 68.8316 53.7645C68.8316 53.7645 68.1001 53.638 67.4996 52.9036ZM58.7739 54.1144L60.3635 55.2308L58.7348 56.115L58.7739 54.1144ZM67.1395 55.4126C66.6657 54.6817 66.6024 54.2997 66.6024 54.2997C66.6024 54.2997 67.3339 54.4937 67.8085 55.0342C68.2849 55.5755 68.5053 56.4017 68.5053 56.4017C68.5053 56.4017 67.615 56.1445 67.1395 55.4126ZM66.8775 58.1434C66.3065 57.4748 66.2761 56.8062 66.2761 56.8062C66.2761 56.8062 66.7855 56.9049 67.294 57.4462C67.799 57.9892 68.0515 58.8155 68.0515 58.8155C68.0515 58.8155 67.4484 58.8129 66.8775 58.1434ZM58.7635 57.1959L60.4486 57.868L58.727 58.9419L58.7635 57.1959ZM58.76 59.4503L60.472 60.6559L58.7175 61.6094L58.76 59.4503Z" fill="white"/>
</mask>
<g mask="url(#mask5_4_5)">
<path d="M-89.9612 191.945H192.914V-90.397H-89.9612V191.945Z" fill="#3E1860"/>
<path d="M55.6458 64.0163H72.1124V34.6311H55.6458V64.0163Z" fill="#3E1860"/>
</g>
<mask id="mask6_4_5" style="mask-type:luminance" maskUnits="userSpaceOnUse" x="0" y="0" width="103" height="70">
<path d="M0 0H102.35V70H0V0Z" fill="white"/>
</mask>
<g mask="url(#mask6_4_5)">
<path d="M89.0597 36.1285C89.0597 36.1285 81.8299 35.6288 78.589 44.2004C76.4101 49.9529 76.5603 57.9892 80.3235 63.9028C83.725 69.2448 90.8567 70.1646 95.5658 67.5083C101.36 64.2397 102.842 56.1878 102.218 48.7482C101.498 40.2251 95.8687 37.0674 93.1345 36.5009C91.5145 36.164 90.3847 36.0973 89.7322 36.0973C89.2836 36.0973 89.0597 36.1285 89.0597 36.1285ZM89.4398 39.023C90.2294 38.2062 90.8021 38.2062 90.8021 38.2062C90.8021 38.2062 90.8819 38.7986 90.3075 39.5625C89.733 40.3229 88.5911 40.575 88.5911 40.575C88.5911 40.575 88.6484 39.8388 89.4398 39.023ZM92.2069 41.066C92.2069 41.066 92.6998 40.2476 93.7054 39.9419C94.7137 39.6335 95.6647 39.8631 95.6647 39.8631C95.6647 39.8631 95.3376 40.5958 94.5185 40.9032C94.1011 41.0617 93.5015 41.0998 93.0199 41.0998C92.5618 41.0998 92.2069 41.066 92.2069 41.066ZM85.1862 41.5216C85.1637 40.7023 85.5992 39.7998 85.5992 39.7998C85.5992 39.7998 85.8717 40.0839 86.0322 41.1007C86.1919 42.1192 85.5897 43.0468 85.5897 43.0468C85.5897 43.0468 85.2122 42.3409 85.1862 41.5216ZM90.3786 41.4679C90.3786 41.2263 90.5686 41.0314 90.8003 41.0331C91.0346 41.0331 91.222 41.228 91.222 41.4714C91.2203 41.7121 91.0294 41.907 90.7986 41.907C90.5652 41.9061 90.3786 41.7087 90.3786 41.4679ZM87.1056 41.8923C87.1056 41.6515 87.2956 41.4566 87.5282 41.4575C87.7616 41.4575 87.9481 41.655 87.9473 41.8957C87.9464 42.1382 87.7573 42.3297 87.5256 42.3297C87.2922 42.3297 87.1056 42.1348 87.1056 41.8923ZM82.4061 43.5456C82.1076 42.8666 82.3306 41.8784 82.3306 41.8784C82.3306 41.8784 82.6837 42.2197 83.1393 43.0121C83.6026 43.8037 83.5454 44.8499 83.5454 44.8499C83.5454 44.8499 82.7019 44.2246 82.4061 43.5456ZM93.0399 42.4466C93.0408 42.2058 93.2282 42.0101 93.4599 42.0109C93.695 42.0118 93.8825 42.2084 93.8816 42.4518C93.8807 42.6908 93.6898 42.8848 93.459 42.8848C93.2265 42.8839 93.039 42.6873 93.0399 42.4466ZM96.2765 44.0454C95.1615 43.8999 94.5671 43.304 94.5671 43.304C94.5671 43.304 95.4912 42.9411 96.3077 43.1126C97.1234 43.2841 98.018 43.8808 98.018 43.8808C98.018 43.8808 97.6076 44.0843 96.857 44.0843C96.6808 44.0843 96.4882 44.0731 96.2765 44.0454ZM86.3056 54.2738C85.9377 50.3998 86.6787 46.1257 88.2414 44.6455C89.8068 43.1646 91.2784 44.1597 91.2784 44.1597C91.2784 44.1597 92.9271 44.6811 93.4295 47.9826C93.9345 51.284 94.5089 56.7828 91.9717 58.7678C91.3696 59.239 90.7561 59.452 90.1669 59.452C88.2597 59.452 86.5858 57.2331 86.3056 54.2738ZM84.8079 44.507C84.8096 44.2645 84.9971 44.0705 85.2296 44.0713C85.4613 44.0731 85.6496 44.2671 85.6478 44.5104C85.647 44.7512 85.4587 44.9452 85.2253 44.9443C84.9953 44.9435 84.807 44.7469 84.8079 44.507ZM94.2903 45.1687C94.292 44.927 94.482 44.733 94.7137 44.7339C94.9471 44.7348 95.1337 44.9314 95.1328 45.1721C95.132 45.4129 94.9428 45.6069 94.712 45.6069C94.4777 45.606 94.2903 45.4094 94.2903 45.1687ZM81.3891 46.7908C81.0646 46.1672 80.9596 45.3211 80.9596 45.3211C80.9596 45.3211 81.8004 45.7186 82.2325 46.4271C82.6672 47.1329 82.5544 47.9531 82.5544 47.9531C82.5544 47.9531 81.7136 47.4127 81.3891 46.7908ZM97.2986 47.579C96.4014 47.1528 95.8869 46.389 95.8869 46.389C95.8869 46.389 96.8952 46.3621 97.6822 46.6479C98.4692 46.9337 99.0644 48.0354 99.0644 48.0354C99.0644 48.0354 98.195 48.0051 97.2986 47.579ZM83.817 46.8324C83.8178 46.5908 84.007 46.395 84.2395 46.3959C84.4721 46.3976 84.6595 46.5942 84.6586 46.835C84.6578 47.0775 84.4686 47.2715 84.2361 47.2715C84.0044 47.2706 83.8161 47.074 83.817 46.8324ZM95.3567 48.0847C95.3567 47.844 95.5459 47.6491 95.7819 47.65C96.0127 47.65 96.1993 47.8466 96.1984 48.0873C96.1975 48.3307 96.0092 48.5247 95.7758 48.5239C95.5441 48.5221 95.3567 48.3255 95.3567 48.0847ZM80.78 50.0932C80.0736 49.6108 79.7222 48.6503 79.7222 48.6503C79.7222 48.6503 80.8112 48.7932 81.5149 49.3899C82.2212 49.9858 82.3002 50.7479 82.3002 50.7479C82.3002 50.7479 81.4845 50.5765 80.78 50.0932ZM83.9497 49.454C83.9506 49.2124 84.1397 49.0167 84.3706 49.0184C84.604 49.0192 84.7923 49.2133 84.7914 49.4566C84.7905 49.6965 84.5996 49.8923 84.3688 49.8914C84.1345 49.8905 83.9471 49.6948 83.9497 49.454ZM97.611 51.4798C96.634 50.6276 96.4769 49.299 96.4769 49.299C96.4769 49.299 97.3733 49.5008 98.2141 50.2941C99.054 51.0866 99.3204 52.3589 99.3204 52.3589C99.3204 52.3589 98.5881 52.3285 97.611 51.4798ZM95.6257 51.8712C95.6257 51.6305 95.8131 51.4339 96.0474 51.4365C96.2791 51.4373 96.4665 51.6331 96.4656 51.8738C96.4656 52.1129 96.2765 52.3095 96.0431 52.3086C95.8131 52.3086 95.6248 52.112 95.6257 51.8712ZM83.8456 52.4628C83.8465 52.2211 84.0348 52.0263 84.2682 52.0271C84.4998 52.0271 84.6873 52.2237 84.6864 52.4636C84.6864 52.7053 84.4972 52.8993 84.263 52.8993C84.0322 52.8993 83.8447 52.7044 83.8456 52.4628ZM80.3582 53.7082C79.5712 53.3098 79.3022 52.5173 79.3022 52.5173C79.3022 52.5173 80.1457 52.293 80.9882 52.636C81.829 52.9772 82.3167 54.0815 82.3167 54.0815C82.3167 54.0815 82.3019 54.0823 82.2768 54.0823C82.0659 54.0823 81.0611 54.0616 80.3582 53.7082ZM97.3837 53.9057C96.7346 53.0309 96.7902 52.5771 96.7902 52.5771C96.7902 52.5771 97.336 52.5511 98.149 53.1747C98.9629 53.7983 98.9603 54.9562 98.9603 54.9562C98.9603 54.9562 98.0353 54.7847 97.3837 53.9057ZM95.7558 54.8324C95.7558 54.5907 95.9441 54.3959 96.1767 54.3967C96.4075 54.3967 96.5958 54.5916 96.5941 54.8358C96.5941 55.0749 96.4075 55.2706 96.1732 55.2697C95.9424 55.268 95.755 55.0731 95.7558 54.8324ZM84.3003 56.2008C84.0686 56.2008 83.8803 56.005 83.8803 55.7608C83.8803 55.5209 84.0703 55.3252 84.3029 55.3278C84.5346 55.3304 84.7237 55.5244 84.722 55.7677C84.7202 56.0059 84.5328 56.2008 84.3029 56.2008H84.3003ZM97.1563 57.3241C96.6696 56.5022 96.673 55.7392 96.673 55.7392C96.673 55.7392 97.5416 55.9115 98.1091 56.4225C98.6809 56.9326 98.6766 58.4301 98.6766 58.4301C98.6766 58.4301 97.6449 58.1443 97.1563 57.3241ZM81.0524 57.693C80.1552 57.4064 79.5591 56.6416 79.5591 56.6416C79.5591 56.6416 80.7305 56.3064 81.5722 56.6217C82.4156 56.9352 83.0369 57.9806 83.0369 57.9806C83.0369 57.9806 81.9488 57.978 81.0524 57.693ZM95.1389 57.2089C95.1406 56.9681 95.3289 56.7724 95.5615 56.7724C95.7949 56.7733 95.9823 56.9707 95.9815 57.2106C95.9797 57.4514 95.7906 57.6471 95.558 57.6463C95.3255 57.6463 95.1389 57.4497 95.1389 57.2089ZM84.6656 58.5799C84.6665 58.3383 84.8556 58.1434 85.0882 58.1443C85.3207 58.1451 85.5081 58.3417 85.5073 58.5816C85.5064 58.8233 85.3181 59.019 85.0856 59.0181C84.8513 59.0181 84.6656 58.8224 84.6656 58.5799ZM95.8687 60.086C95.7645 59.0415 96.0917 58.5063 96.0917 58.5063C96.0917 58.5063 96.4717 58.7332 96.8205 59.892C97.172 61.0517 96.7329 61.8416 96.7329 61.8416C96.7329 61.8416 95.9745 61.1305 95.8687 60.086ZM94.1506 59.3888C94.1523 59.148 94.3397 58.9532 94.5732 58.9532C94.804 58.954 94.9923 59.1506 94.9914 59.3923C94.9905 59.6339 94.8022 59.8279 94.5697 59.8279C94.338 59.8245 94.1506 59.6296 94.1506 59.3888ZM82.5909 61.0041C81.3952 60.9123 80.5812 60.2887 80.5812 60.2887C80.5812 60.2887 81.6989 59.8972 82.7323 59.9855C83.764 60.0748 84.4426 60.9512 84.4426 60.9512C84.4426 60.9512 84.0677 61.0344 83.3657 61.0344C83.1393 61.0344 82.8807 61.0222 82.5909 61.0041ZM86.3394 61.0119C86.3411 60.7719 86.5303 60.5762 86.762 60.5771C86.9945 60.5771 87.1811 60.7737 87.1802 61.0153C87.1794 61.2561 86.9919 61.4501 86.762 61.4501H86.7602C86.526 61.4501 86.3394 61.2535 86.3394 61.0119ZM92.1817 61.0811C92.1817 60.8386 92.37 60.6464 92.6043 60.6464C92.836 60.6464 93.0243 60.8421 93.0217 61.0837C93.0208 61.3254 92.8343 61.5202 92.6 61.5202C92.37 61.5168 92.1817 61.3228 92.1817 61.0811ZM93.6317 62.3681C93.8243 61.1539 94.1254 61.0136 94.1254 61.0136C94.1254 61.0136 94.6391 61.8338 94.5532 62.8514C94.469 63.8673 93.9241 64.574 93.9241 64.574C93.9241 64.574 93.4364 63.5815 93.6317 62.3681ZM89.609 62.0901C89.609 61.8502 89.7981 61.6545 90.0298 61.6553C90.2606 61.6562 90.448 61.8528 90.448 62.0936C90.448 62.3352 90.2597 62.5292 90.0263 62.5292C89.7955 62.5284 89.6072 62.3335 89.609 62.0901ZM83.9966 64.0301C83.9966 64.0301 84.4339 63.0714 85.6045 62.9051C86.7733 62.7405 87.4258 63.0818 87.4536 63.1649C87.4536 63.1649 86.7438 63.8422 85.7363 64.0916C85.4474 64.1626 85.1827 64.1904 84.9493 64.1904C84.3697 64.1904 83.9966 64.0301 83.9966 64.0301ZM89.792 63.5702C90.3101 63.0904 91.3444 62.9536 91.3444 62.9536C91.3444 62.9536 90.986 63.7989 90.4142 64.5325C89.8398 65.2643 89.0232 65.3457 89.0232 65.3457C89.0232 65.3457 89.2723 64.0466 89.792 63.5702Z" fill="#3E1860"/>
</g>
<mask id="mask7_4_5" style="mask-type:luminance" maskUnits="userSpaceOnUse" x="77" y="36" width="26" height="33">
<path d="M89.0597 36.1285C89.0597 36.1285 81.8299 35.6288 78.589 44.2004C76.4101 49.9529 76.5603 57.9892 80.3235 63.9028C83.725 69.2448 90.8567 70.1646 95.5658 67.5083C101.36 64.2397 102.842 56.1878 102.218 48.7482C101.498 40.2251 95.8687 37.0673 93.1345 36.5009C91.5145 36.164 90.3847 36.0973 89.7322 36.0973C89.2836 36.0973 89.0597 36.1285 89.0597 36.1285ZM89.4397 39.023C90.2294 38.2062 90.8021 38.2062 90.8021 38.2062C90.8021 38.2062 90.8819 38.7986 90.3075 39.5625C89.733 40.3229 88.5911 40.575 88.5911 40.575C88.5911 40.575 88.6484 39.8388 89.4397 39.023ZM92.2069 41.066C92.2069 41.066 92.6998 40.2476 93.7054 39.9419C94.7137 39.6335 95.6647 39.8631 95.6647 39.8631C95.6647 39.8631 95.3376 40.5958 94.5185 40.9032C94.1011 41.0617 93.5015 41.0998 93.0199 41.0998C92.5618 41.0998 92.2069 41.066 92.2069 41.066ZM85.1862 41.5216C85.1636 40.7023 85.5992 39.7998 85.5992 39.7998C85.5992 39.7998 85.8717 40.0839 86.0322 41.1007C86.1919 42.1192 85.5897 43.0468 85.5897 43.0468C85.5897 43.0468 85.2122 42.3409 85.1862 41.5216ZM90.3786 41.4679C90.3786 41.2263 90.5686 41.0314 90.8003 41.0331C91.0346 41.0331 91.222 41.228 91.222 41.4714C91.2203 41.7121 91.0294 41.907 90.7986 41.907C90.5652 41.9061 90.3786 41.7087 90.3786 41.4679ZM87.1056 41.8923C87.1056 41.6515 87.2956 41.4566 87.5282 41.4575C87.7616 41.4575 87.9482 41.655 87.9473 41.8957C87.9464 42.1382 87.7573 42.3296 87.5256 42.3296C87.2922 42.3296 87.1056 42.1348 87.1056 41.8923ZM82.4061 43.5456C82.1076 42.8666 82.3306 41.8784 82.3306 41.8784C82.3306 41.8784 82.6837 42.2197 83.1393 43.0121C83.6026 43.8037 83.5454 44.8499 83.5454 44.8499C83.5454 44.8499 82.7019 44.2246 82.4061 43.5456ZM93.0399 42.4466C93.0408 42.2058 93.2282 42.0101 93.4599 42.0109C93.695 42.0118 93.8825 42.2084 93.8816 42.4518C93.8807 42.6908 93.6898 42.8848 93.459 42.8848C93.2265 42.8839 93.039 42.6873 93.0399 42.4466ZM96.2765 44.0454C95.1615 43.8998 94.5671 43.304 94.5671 43.304C94.5671 43.304 95.4912 42.9411 96.3077 43.1126C97.1234 43.2841 98.018 43.8808 98.018 43.8808C98.018 43.8808 97.6076 44.0843 96.857 44.0843C96.6808 44.0843 96.4882 44.0731 96.2765 44.0454ZM86.3056 54.2737C85.9377 50.3998 86.6787 46.1257 88.2414 44.6455C89.8068 43.1645 91.2784 44.1597 91.2784 44.1597C91.2784 44.1597 92.9271 44.6811 93.4295 47.9825C93.9345 51.284 94.5089 56.7828 91.9717 58.7678C91.3695 59.239 90.7561 59.452 90.1669 59.452C88.2597 59.452 86.5858 57.2331 86.3056 54.2737ZM84.8079 44.507C84.8096 44.2645 84.9971 44.0705 85.2296 44.0713C85.4613 44.0731 85.6496 44.2671 85.6478 44.5104C85.647 44.7512 85.4587 44.9452 85.2253 44.9443C84.9953 44.9435 84.807 44.7469 84.8079 44.507ZM94.2903 45.1687C94.292 44.927 94.482 44.733 94.7137 44.7339C94.9471 44.7347 95.1337 44.9314 95.1328 45.1721C95.132 45.4129 94.9428 45.6069 94.712 45.6069C94.4777 45.606 94.2903 45.4094 94.2903 45.1687ZM81.3891 46.7908C81.0646 46.1672 80.9596 45.3211 80.9596 45.3211C80.9596 45.3211 81.8004 45.7186 82.2325 46.4271C82.6672 47.1329 82.5544 47.9531 82.5544 47.9531C82.5544 47.9531 81.7136 47.4127 81.3891 46.7908ZM97.2987 47.579C96.4014 47.1528 95.8869 46.389 95.8869 46.389C95.8869 46.389 96.8952 46.3621 97.6822 46.6479C98.4692 46.9337 99.0644 48.0354 99.0644 48.0354C99.0644 48.0354 98.195 48.0051 97.2987 47.579ZM83.817 46.8324C83.8178 46.5908 84.007 46.395 84.2395 46.3959C84.4721 46.3976 84.6595 46.5942 84.6586 46.835C84.6578 47.0775 84.4686 47.2715 84.2361 47.2715C84.0044 47.2706 83.8161 47.074 83.817 46.8324ZM95.3567 48.0847C95.3567 47.844 95.5459 47.6491 95.7819 47.65C96.0127 47.65 96.1993 47.8466 96.1984 48.0873C96.1975 48.3307 96.0092 48.5247 95.7758 48.5238C95.5441 48.5221 95.3567 48.3255 95.3567 48.0847ZM80.78 50.0932C80.0736 49.6108 79.7222 48.6503 79.7222 48.6503C79.7222 48.6503 80.8112 48.7932 81.5149 49.3899C82.2212 49.9858 82.3002 50.7479 82.3002 50.7479C82.3002 50.7479 81.4845 50.5765 80.78 50.0932ZM83.9497 49.454C83.9506 49.2124 84.1397 49.0166 84.3706 49.0184C84.604 49.0192 84.7923 49.2132 84.7914 49.4566C84.7905 49.6965 84.5996 49.8923 84.3688 49.8914C84.1345 49.8905 83.9471 49.6948 83.9497 49.454ZM97.611 51.4798C96.634 50.6276 96.4769 49.299 96.4769 49.299C96.4769 49.299 97.3733 49.5008 98.2141 50.2941C99.054 51.0866 99.3204 52.3588 99.3204 52.3588C99.3204 52.3588 98.5881 52.3285 97.611 51.4798ZM95.6257 51.8712C95.6257 51.6305 95.8131 51.4339 96.0474 51.4365C96.2791 51.4373 96.4665 51.6331 96.4656 51.8738C96.4656 52.1129 96.2765 52.3095 96.0431 52.3086C95.8131 52.3086 95.6248 52.112 95.6257 51.8712ZM83.8456 52.4628C83.8465 52.2211 84.0348 52.0263 84.2682 52.0271C84.4998 52.0271 84.6873 52.2237 84.6864 52.4636C84.6864 52.7053 84.4972 52.8993 84.263 52.8993C84.0322 52.8993 83.8447 52.7044 83.8456 52.4628ZM80.3582 53.7082C79.5712 53.3098 79.3022 52.5173 79.3022 52.5173C79.3022 52.5173 80.1457 52.293 80.9882 52.636C81.829 52.9772 82.3167 54.0815 82.3167 54.0815C82.3167 54.0815 82.3019 54.0823 82.2768 54.0823C82.0659 54.0823 81.0611 54.0616 80.3582 53.7082ZM97.3837 53.9057C96.7346 53.0309 96.7902 52.5771 96.7902 52.5771C96.7902 52.5771 97.336 52.5511 98.149 53.1747C98.9629 53.7983 98.9603 54.9562 98.9603 54.9562C98.9603 54.9562 98.0353 54.7847 97.3837 53.9057ZM95.7558 54.8324C95.7558 54.5907 95.9441 54.3959 96.1767 54.3967C96.4075 54.3967 96.5958 54.5916 96.5941 54.8358C96.5941 55.0749 96.4075 55.2706 96.1732 55.2697C95.9424 55.268 95.755 55.0731 95.7558 54.8324ZM83.8803 55.7608C83.8803 55.5209 84.0703 55.3252 84.3029 55.3278C84.5346 55.3304 84.7237 55.5244 84.722 55.7677C84.7202 56.0059 84.5328 56.2008 84.3029 56.2008H84.3003C84.0686 56.2008 83.8803 56.005 83.8803 55.7608ZM97.1563 57.3241C96.6696 56.5022 96.673 55.7392 96.673 55.7392C96.673 55.7392 97.5416 55.9115 98.1091 56.4225C98.6809 56.9326 98.6766 58.4301 98.6766 58.4301C98.6766 58.4301 97.6449 58.1443 97.1563 57.3241ZM81.0524 57.693C80.1552 57.4064 79.5591 56.6416 79.5591 56.6416C79.5591 56.6416 80.7305 56.3064 81.5722 56.6217C82.4156 56.9352 83.0369 57.9806 83.0369 57.9806C83.0369 57.9806 81.9488 57.978 81.0524 57.693ZM95.1389 57.2089C95.1406 56.9681 95.3289 56.7724 95.5615 56.7724C95.7949 56.7733 95.9823 56.9707 95.9815 57.2106C95.9797 57.4514 95.7906 57.6471 95.558 57.6463C95.3255 57.6463 95.1389 57.4497 95.1389 57.2089ZM84.6656 58.5799C84.6664 58.3383 84.8556 58.1434 85.0882 58.1443C85.3207 58.1451 85.5081 58.3417 85.5073 58.5816C85.5064 58.8233 85.3181 59.019 85.0856 59.0181C84.8513 59.0181 84.6656 58.8224 84.6656 58.5799ZM95.8687 60.086C95.7645 59.0415 96.0917 58.5063 96.0917 58.5063C96.0917 58.5063 96.4717 58.7332 96.8205 59.892C97.172 61.0517 96.7329 61.8416 96.7329 61.8416C96.7329 61.8416 95.9745 61.1305 95.8687 60.086ZM94.1506 59.3888C94.1523 59.148 94.3397 58.9532 94.5732 58.9532C94.804 58.954 94.9923 59.1506 94.9914 59.3923C94.9905 59.6339 94.8022 59.8279 94.5697 59.8279C94.338 59.8245 94.1506 59.6296 94.1506 59.3888ZM82.5909 61.0041C81.3952 60.9122 80.5812 60.2887 80.5812 60.2887C80.5812 60.2887 81.6989 59.8972 82.7323 59.9855C83.764 60.0748 84.4426 60.9512 84.4426 60.9512C84.4426 60.9512 84.0677 61.0344 83.3657 61.0344C83.1393 61.0344 82.8807 61.0222 82.5909 61.0041ZM86.3394 61.0118C86.3411 60.7719 86.5303 60.5762 86.762 60.5771C86.9945 60.5771 87.1811 60.7737 87.1802 61.0153C87.1794 61.2561 86.9919 61.4501 86.762 61.4501H86.7602C86.526 61.4501 86.3394 61.2535 86.3394 61.0118ZM92.1817 61.0811C92.1817 60.8386 92.37 60.6464 92.6043 60.6464C92.836 60.6464 93.0243 60.8421 93.0217 61.0837C93.0208 61.3254 92.8343 61.5202 92.6 61.5202C92.37 61.5168 92.1817 61.3228 92.1817 61.0811ZM93.6317 62.3681C93.8243 61.1539 94.1254 61.0136 94.1254 61.0136C94.1254 61.0136 94.6391 61.8338 94.5532 62.8514C94.469 63.8673 93.9241 64.574 93.9241 64.574C93.9241 64.574 93.4364 63.5815 93.6317 62.3681ZM89.609 62.0901C89.609 61.8502 89.7981 61.6545 90.0298 61.6553C90.2606 61.6562 90.448 61.8528 90.448 62.0936C90.448 62.3352 90.2597 62.5292 90.0263 62.5292C89.7955 62.5284 89.6072 62.3335 89.609 62.0901ZM83.9966 64.0301C83.9966 64.0301 84.4339 63.0714 85.6045 62.9051C86.7733 62.7405 87.4258 63.0818 87.4536 63.1649C87.4536 63.1649 86.7438 63.8422 85.7363 64.0916C85.4474 64.1626 85.1827 64.1904 84.9493 64.1904C84.3697 64.1904 83.9966 64.0301 83.9966 64.0301ZM89.792 63.5702C90.3101 63.0904 91.3444 62.9536 91.3444 62.9536C91.3444 62.9536 90.986 63.7989 90.4142 64.5325C89.8398 65.2643 89.0232 65.3457 89.0232 65.3457C89.0232 65.3457 89.2723 64.0466 89.792 63.5702Z" fill="white"/>
</mask>
<g mask="url(#mask7_4_5)">
<path d="M-89.9612 191.945H192.914V-90.397H-89.9612V191.945Z" fill="#3E1860"/>
<path d="M76.4102 70.1628H102.842V35.6288H76.4102V70.1628Z" fill="#3E1860"/>
</g>
<mask id="mask8_4_5" style="mask-type:luminance" maskUnits="userSpaceOnUse" x="0" y="0" width="103" height="70">
<path d="M0 0H102.35V70H0V0Z" fill="white"/>
</mask>
<g mask="url(#mask8_4_5)">
<path d="M70.396 39.5746C70.2389 41.3423 72.7527 43.1013 72.7787 43.1186L73.3219 43.4962L72.6616 43.543C72.554 43.5499 70.0628 43.7448 70.1443 45.7125C70.2294 47.766 72.8941 49.0253 72.9236 49.0374L73.7315 49.4142L72.8429 49.4791C72.8099 49.4808 69.6202 49.7485 69.4909 51.9024C69.3599 54.123 71.996 55.6976 72.0212 55.7123L72.6789 56.0977L71.9171 56.1436C71.891 56.1462 68.9825 56.3445 69.0041 58.1884C69.0189 59.4208 70.6355 60.7087 71.6758 61.4102C71.7939 61.3583 71.9162 61.3089 72.0333 61.2535C75.5198 59.6348 76.9776 53.2647 76.6574 46.9025C76.3259 40.3264 72.0438 37.9187 72.0438 37.9187C71.9874 37.8832 71.9275 37.8546 71.8702 37.8208C71.2073 38.0659 70.4879 38.5604 70.396 39.5746ZM71.6403 41.1526C71.4928 40.4554 73.3722 40.5836 73.3722 40.5836L73.3679 41.8541C73.3679 41.8541 71.7912 41.8489 71.6403 41.1526ZM71.8069 46.2062C72.0212 45.4813 73.8694 46.2443 73.8694 46.2443L73.6213 47.2723C73.6213 47.2723 71.5917 46.932 71.8069 46.2062ZM71.1812 51.8946C71.4893 51.1844 73.0312 52.0236 73.0312 52.0236L72.8134 53.2032C72.8134 53.2032 70.8142 52.7408 71.1812 51.8946ZM70.278 57.6774C70.5565 57.0322 71.95 57.7909 71.95 57.7909L71.7522 58.8587C71.7522 58.8587 69.9456 58.4422 70.278 57.6774Z" fill="#3E1860"/>
</g>
<mask id="mask9_4_5" style="mask-type:luminance" maskUnits="userSpaceOnUse" x="69" y="37" width="8" height="25">
<path d="M70.396 39.5746C70.2389 41.3423 72.7527 43.1013 72.7787 43.1186L73.3219 43.4962L72.6616 43.543C72.554 43.5499 70.0628 43.7448 70.1443 45.7125C70.2294 47.766 72.8941 49.0253 72.9236 49.0374L73.7315 49.4142L72.8429 49.4791C72.8099 49.4808 69.6202 49.7485 69.4909 51.9024C69.3599 54.123 71.996 55.6976 72.0212 55.7123L72.6789 56.0977L71.9171 56.1436C71.891 56.1462 68.9825 56.3445 69.0041 58.1884C69.0189 59.4208 70.6354 60.7087 71.6758 61.4102C71.7938 61.3583 71.9162 61.3089 72.0333 61.2535C75.5198 59.6348 76.9776 53.2647 76.6574 46.9025C76.3259 40.3264 72.0438 37.9187 72.0438 37.9187C71.9874 37.8832 71.9275 37.8546 71.8702 37.8208C71.2073 38.0659 70.4879 38.5604 70.396 39.5746ZM71.6403 41.1526C71.4928 40.4554 73.3722 40.5836 73.3722 40.5836L73.3679 41.8541C73.3679 41.8541 71.7912 41.8489 71.6403 41.1526ZM71.8069 46.2062C72.0212 45.4813 73.8694 46.2443 73.8694 46.2443L73.6213 47.2723C73.6213 47.2723 71.5917 46.932 71.8069 46.2062ZM71.1812 51.8946C71.4893 51.1844 73.0312 52.0236 73.0312 52.0236L72.8134 53.2032C72.8134 53.2032 70.8142 52.7408 71.1812 51.8946ZM70.278 57.6774C70.5565 57.0322 71.95 57.7909 71.95 57.7909L71.7522 58.8587C71.7522 58.8587 69.9456 58.4422 70.278 57.6774Z" fill="white"/>
</mask>
<g mask="url(#mask9_4_5)">
<path d="M-89.9612 191.945H192.914V-90.3971H-89.9612V191.945Z" fill="#3E1860"/>
<path d="M68.9825 61.4093H76.9777V37.8199H68.9825V61.4093Z" fill="#3E1860"/>
</g>
<mask id="mask10_4_5" style="mask-type:luminance" maskUnits="userSpaceOnUse" x="0" y="0" width="103" height="70">
<path d="M0 0H102.35V70H0V0Z" fill="white"/>
</mask>
<g mask="url(#mask10_4_5)">
<path d="M58.1569 64.8884C57.6874 64.8884 57.2987 65.2738 57.2987 65.7449C57.2987 66.217 57.6874 66.6015 58.1569 66.6015H77.7247C78.1976 66.6015 78.5829 66.217 78.5829 65.7449C78.5829 65.2738 78.1976 64.8884 77.7247 64.8884H58.1569Z" fill="#3E1860"/>
</g>
<mask id="mask11_4_5" style="mask-type:luminance" maskUnits="userSpaceOnUse" x="57" y="64" width="22" height="3">
<path d="M58.1569 64.8884C57.6874 64.8884 57.2987 65.2738 57.2987 65.7449C57.2987 66.217 57.6874 66.6015 58.1569 66.6015H77.7247C78.1976 66.6015 78.5829 66.217 78.5829 65.7449C78.5829 65.2738 78.1976 64.8884 77.7247 64.8884H58.1569Z" fill="white"/>
</mask>
<g mask="url(#mask11_4_5)">
<path d="M-89.9612 191.945H192.914V-90.3971H-89.9612V191.945Z" fill="#3E1860"/>
<path d="M57.2987 66.6015H78.582V64.8884H57.2987V66.6015Z" fill="#3E1860"/>
</g>
<mask id="mask12_4_5" style="mask-type:luminance" maskUnits="userSpaceOnUse" x="0" y="0" width="103" height="70">
<path d="M0 0H102.35V70H0V0Z" fill="white"/>
</mask>
<g mask="url(#mask12_4_5)">
<path d="M22.9856 47.4654L22.891 49.0191C23.6528 49.0676 25.574 49.1802 27.2556 49.2131C27.8552 49.2244 28.3428 49.2131 28.7377 49.1924L28.6882 47.4715C27.4239 47.4801 25.4386 47.4853 24.4407 47.4411C24.2177 47.4299 24.0173 47.4256 23.8377 47.4256C23.4732 47.4256 23.1947 47.4437 22.9856 47.4654Z" fill="#3E1860"/>
</g>
<mask id="mask13_4_5" style="mask-type:luminance" maskUnits="userSpaceOnUse" x="22" y="47" width="7" height="3">
<path d="M22.9858 47.4655L22.8912 49.0192C23.653 49.0677 25.5741 49.1803 27.2558 49.2132C27.8554 49.2245 28.343 49.2132 28.7378 49.1924L28.6884 47.4715C27.4233 47.4802 25.4388 47.4845 24.44 47.4412C24.2179 47.4299 24.0175 47.4256 23.8379 47.4256C23.4734 47.4256 23.1949 47.4438 22.9858 47.4655Z" fill="white"/>
</mask>
<g mask="url(#mask13_4_5)">
<path d="M22.8912 49.2245H28.7378V47.4266H22.8912V49.2245Z" fill="#3E1860"/>
</g>
<mask id="mask14_4_5" style="mask-type:luminance" maskUnits="userSpaceOnUse" x="0" y="0" width="103" height="70">
<path d="M0 0H102.35V70H0V0Z" fill="white"/>
</mask>
<g mask="url(#mask14_4_5)">
<path d="M25.7786 66.5485L24.8476 64.5781L23.7326 66.5675L22.8588 64.5998L21.9841 66.3181L21.8713 65.5481L21.657 69.0151L29.3267 69.2671L29.2174 65.5066L28.7688 64.5305L28 66.4229L26.8407 64.443L25.7786 66.5485Z" fill="#3E1860"/>
<path d="M25.7779 66.5486L24.8477 64.5783L23.7318 66.5676L22.858 64.5999L21.9834 66.3182L21.8706 65.5483L21.6562 69.0152L29.326 69.2672L29.2167 65.5076L28.7689 64.5306L28.0001 66.423L26.84 64.4432L25.7779 66.5486Z" fill="#3E1860"/>
</g>
<mask id="mask15_4_5" style="mask-type:luminance" maskUnits="userSpaceOnUse" x="21" y="64" width="9" height="6">
<path d="M25.7781 66.5486L24.8479 64.5783L23.732 66.5677L22.8582 64.6L21.9836 66.3183L21.8699 65.5483L21.6564 69.0152L29.3262 69.2673L29.2168 65.5076L28.7691 64.5307L28.0003 66.4231L26.8402 64.4432L25.7781 66.5486Z" fill="white"/>
</mask>
<g mask="url(#mask15_4_5)">
<path d="M21.6564 69.2673H29.3262V64.4432H21.6564V69.2673Z" fill="#3E1860"/>
</g>
<mask id="mask16_4_5" style="mask-type:luminance" maskUnits="userSpaceOnUse" x="0" y="0" width="103" height="70">
<path d="M0 0H102.35V70H0V0Z" fill="white"/>
</mask>
<g mask="url(#mask16_4_5)">
<path d="M23.2363 43.4003L23.6658 44.5158L24.6263 42.1774L25.7101 44.5504L26.7835 42.2189L28.1571 44.4361L28.5779 43.7043L28.4 37.6625L23.5946 37.5906L23.2363 43.4003ZM24.681 41.4031C24.6749 41.3918 24.6706 41.3823 24.6671 41.371C24.6342 41.3477 24.6194 41.3121 24.6237 41.268C24.4736 40.8834 24.4537 40.4469 24.7235 40.1135C24.7374 40.0061 24.8797 39.9221 24.9682 40.0295C25.3179 40.4487 25.2485 41.0489 24.8988 41.4455C24.8771 41.4706 24.8459 41.4828 24.8146 41.4828C24.76 41.4828 24.7027 41.4499 24.681 41.4031ZM26.0294 41.5529C25.8793 41.2801 25.8359 40.9709 25.8819 40.6721C25.8932 40.5647 25.9201 40.4599 25.9652 40.3621C25.9895 40.2971 26.0182 40.2313 26.052 40.1689C26.0668 40.1386 26.0997 40.1222 26.1327 40.1135C26.137 40.1092 26.1405 40.1057 26.1431 40.1022C26.1934 40.0511 26.301 40.0546 26.3427 40.1152C26.6403 40.537 26.5744 41.1632 26.2715 41.5676C26.242 41.6083 26.1986 41.6291 26.1544 41.6291C26.1058 41.6291 26.0581 41.604 26.0294 41.5529ZM27.58 41.675C27.3206 41.3173 27.1957 40.7319 27.4334 40.3326C27.456 40.2832 27.4837 40.2365 27.5167 40.1923C27.5471 40.1551 27.587 40.136 27.6295 40.1343C27.685 40.1239 27.7449 40.1533 27.777 40.2027C28.2161 40.5509 28.0625 41.2411 27.8013 41.6612C27.7779 41.701 27.7293 41.7227 27.6807 41.7227C27.6425 41.7227 27.6035 41.7079 27.58 41.675Z" fill="#3E1860"/>
<path d="M23.2365 43.4006L23.666 44.5152L24.6265 42.1768L25.7094 44.5499L26.7837 42.2184L28.1573 44.4355L28.5781 43.7037L28.4002 37.6619L23.5939 37.5909L23.2365 43.4006ZM24.6803 41.4025C24.6751 41.3921 24.6708 41.3826 24.6673 41.3705C24.6343 41.348 24.6196 41.3125 24.6239 41.2674C24.4738 40.8838 24.4539 40.4464 24.7237 40.1129C24.7385 40.0055 24.8799 39.9224 24.9684 40.0298C25.3181 40.449 25.2487 41.0492 24.8981 41.445C24.8773 41.4701 24.8469 41.4822 24.8148 41.4822C24.7602 41.4822 24.7029 41.4493 24.6803 41.4025ZM26.0288 41.5524C25.8795 41.2795 25.8353 40.9712 25.8812 40.6716C25.8934 40.5642 25.9203 40.4602 25.9654 40.3624C25.9888 40.2965 26.0183 40.2307 26.0513 40.1684C26.0678 40.1381 26.099 40.1216 26.1329 40.1129C26.1372 40.1086 26.1398 40.1051 26.1433 40.1017C26.1936 40.0506 26.3012 40.054 26.3429 40.1147C26.6405 40.5373 26.5746 41.1626 26.2717 41.568C26.2422 41.6087 26.1988 41.6286 26.1546 41.6286C26.106 41.6286 26.0583 41.6035 26.0288 41.5524ZM27.5802 41.6753C27.3208 41.3168 27.1958 40.7322 27.4336 40.3321C27.457 40.2836 27.483 40.2368 27.5169 40.1918C27.5473 40.1554 27.5872 40.1363 27.6297 40.1337C27.6844 40.1233 27.7451 40.1528 27.7772 40.2021C28.2154 40.5503 28.0618 41.2414 27.8015 41.6606C27.7781 41.7005 27.7295 41.723 27.6809 41.723C27.6427 41.723 27.6037 41.7074 27.5802 41.6753Z" fill="#3E1860"/>
</g>
<mask id="mask17_4_5" style="mask-type:luminance" maskUnits="userSpaceOnUse" x="23" y="37" width="6" height="8">
<path d="M23.2365 43.4001L23.666 44.5147L24.6266 42.1763L25.7095 44.5502L26.7829 42.2187L28.1573 44.4359L28.5782 43.7041L28.3994 37.6623L23.594 37.5913L23.2365 43.4001ZM24.6804 41.4029C24.6743 41.3925 24.6708 41.383 24.6665 41.3709C24.6344 41.3483 24.6188 41.3128 24.624 41.2678C24.4739 40.8841 24.4539 40.4459 24.7238 40.1133C24.7385 40.0059 24.88 39.9228 24.9685 40.0302C25.3182 40.4493 25.2487 41.0495 24.8982 41.4453C24.8765 41.4705 24.8461 41.4826 24.8149 41.4826C24.7602 41.4826 24.703 41.4497 24.6804 41.4029ZM26.0288 41.5527C25.8796 41.2799 25.8353 40.9716 25.8813 40.6719C25.8926 40.5645 25.9204 40.4606 25.9655 40.3627C25.9889 40.2969 26.0175 40.2311 26.0514 40.1687C26.0679 40.1384 26.0991 40.122 26.1329 40.1133C26.1373 40.109 26.1399 40.1055 26.1425 40.102C26.1937 40.0509 26.3013 40.0544 26.3429 40.115C26.6406 40.5377 26.5746 41.163 26.2718 41.5683C26.2423 41.609 26.1989 41.6289 26.1546 41.6289C26.106 41.6289 26.0583 41.6038 26.0288 41.5527ZM27.5794 41.6757C27.3208 41.3172 27.1959 40.7326 27.4336 40.3324C27.4571 40.2839 27.4831 40.2372 27.517 40.1921C27.5473 40.1557 27.5864 40.1367 27.6298 40.1341C27.6844 40.1237 27.7452 40.1531 27.7773 40.2025C28.2155 40.5507 28.0619 41.2409 27.8016 41.661C27.7781 41.7008 27.7295 41.7234 27.6801 41.7234C27.6419 41.7234 27.6029 41.7078 27.5794 41.6757Z" fill="white"/>
</mask>
<g mask="url(#mask17_4_5)">
<path d="M23.2365 44.5502H28.5782V37.5904H23.2365V44.5502Z" fill="#3E1860"/>
</g>
<mask id="mask18_4_5" style="mask-type:luminance" maskUnits="userSpaceOnUse" x="0" y="0" width="103" height="70">
<path d="M0 0H102.35V70H0V0Z" fill="white"/>
</mask>
<g mask="url(#mask18_4_5)">
<path d="M23.0401 46.5986C23.4635 46.6298 24.3261 46.6748 26.0077 46.7181C27.2155 46.7493 28.0763 46.7337 28.6646 46.7052L28.6195 45.1376L23.1451 44.8881L23.0401 46.5986Z" fill="#3E1860"/>
<path d="M23.0405 46.5991C23.464 46.6294 24.3256 46.6753 26.0081 46.7177C27.2151 46.7489 28.0767 46.7333 28.6651 46.7047L28.6199 45.1371L23.1455 44.8877L23.0405 46.5991Z" fill="#3E1860"/>
</g>
<mask id="mask19_4_5" style="mask-type:luminance" maskUnits="userSpaceOnUse" x="23" y="44" width="6" height="3">
<path d="M23.0405 46.5994C23.463 46.6297 24.3256 46.6756 26.0081 46.7181C27.215 46.7493 28.0767 46.7337 28.665 46.7051L28.6199 45.1375L23.1455 44.8881L23.0405 46.5994Z" fill="white"/>
</mask>
<g mask="url(#mask19_4_5)">
<path d="M23.0405 46.7496H28.665V44.8884H23.0405V46.7496Z" fill="#3E1860"/>
</g>
<mask id="mask20_4_5" style="mask-type:luminance" maskUnits="userSpaceOnUse" x="0" y="0" width="103" height="70">
<path d="M0 0H102.35V70H0V0Z" fill="white"/>
</mask>
<g mask="url(#mask20_4_5)">
<path d="M22.0836 62.1014L21.95 64.2589L29.1763 64.1515L29.1191 62.1413L22.2251 62.1014H22.0836Z" fill="#3E1860"/>
<path d="M22.084 62.1021L21.9495 64.2595L29.1759 64.1521L29.1195 62.142L22.2246 62.1021H22.084Z" fill="#3E1860"/>
</g>
<mask id="mask21_4_5" style="mask-type:luminance" maskUnits="userSpaceOnUse" x="21" y="62" width="9" height="3">
<path d="M22.0842 62.1022L21.9489 64.2596L29.1761 64.1522L29.1196 62.1421L22.2248 62.1022H22.0842Z" fill="white"/>
</mask>
<g mask="url(#mask21_4_5)">
<path d="M21.9501 64.2596H29.1773V62.1022H21.9501V64.2596Z" fill="#3E1860"/>
</g>
<mask id="mask22_4_5" style="mask-type:luminance" maskUnits="userSpaceOnUse" x="0" y="0" width="103" height="70">
<path d="M0 0H102.35V70H0V0Z" fill="white"/>
</mask>
<g mask="url(#mask22_4_5)">
<path d="M22.1319 61.3138L29.0936 61.2558L29.0129 58.5329L28.4766 58.5086L27.2887 55.9597L26.1945 58.7442L25.4014 58.7078L24.1632 55.9875L22.315 59.1331L22.3644 58.0591L24.1528 54.9663L24.5494 54.9845L25.6071 57.9231L25.8908 57.937L27.0666 54.5896L27.6323 54.6156L28.7543 57.387L28.9643 56.8648L28.868 53.5607C28.8419 53.6343 28.809 53.7079 28.7595 53.7772C28.6953 53.8664 28.5139 53.8578 28.5044 53.7287C28.4784 53.4247 28.4367 53.1216 28.4888 52.8185C28.5148 52.6608 28.592 52.3568 28.7942 52.3664C28.8081 52.3672 28.8202 52.3707 28.8324 52.375L28.7899 50.927C27.5968 50.8204 25.7347 50.6524 24.4123 50.558C23.5202 50.4913 23.0534 50.4246 22.8061 50.3718L22.1319 61.3138ZM25.667 54.0362C25.0092 53.9314 25.4067 52.589 25.6956 52.2876C25.7503 52.2295 25.8457 52.2469 25.8952 52.2997C26.0271 52.4417 26.0748 52.5933 26.0731 52.7535C26.1919 53.2584 26.1911 54.0422 25.7373 54.0422C25.7147 54.0422 25.6913 54.0405 25.667 54.0362ZM27.1777 53.8344C26.9468 53.3953 26.8523 52.6591 27.2957 52.3153C27.3703 52.2581 27.4675 52.2754 27.5161 52.3568C27.6072 52.5188 27.6315 52.6912 27.628 52.8696C27.7113 53.2247 27.6957 53.5754 27.3981 53.8768C27.3738 53.9002 27.3417 53.9123 27.3104 53.9123C27.2575 53.9123 27.2037 53.882 27.1777 53.8344ZM24.0808 53.9877C23.6678 53.6023 23.6964 52.8687 24.0218 52.4374C24.0391 52.4149 24.06 52.4002 24.0817 52.388C24.086 52.3837 24.0877 52.3794 24.0895 52.3742C24.1389 52.3006 24.2578 52.2902 24.3125 52.3603C24.6682 52.8167 24.6543 53.5174 24.3021 53.9721C24.2708 54.0128 24.2292 54.0327 24.1884 54.0327C24.1502 54.0327 24.112 54.0189 24.0808 53.9877Z" fill="#3E1860"/>
<path d="M22.1309 61.314L29.0926 61.256L29.0119 58.533L28.4765 58.5088L27.2878 55.9599L26.1936 58.7435L25.4005 58.708L24.1622 55.9876L22.3149 59.1332L22.3635 58.0584L24.1527 54.9665L24.5484 54.9847L25.6061 57.9242L25.8899 57.9372L27.0665 54.5898L27.6314 54.6158L28.7533 57.3872L28.9642 56.865L28.867 53.56C28.8418 53.6345 28.808 53.7081 28.7585 53.7783C28.6952 53.8666 28.513 53.8579 28.5043 53.7289C28.4783 53.4249 28.4357 53.1218 28.4878 52.8195C28.5138 52.661 28.5911 52.357 28.7932 52.3666C28.808 52.3674 28.8193 52.3709 28.8314 52.3744L28.7889 50.9271C27.5967 50.8206 25.7345 50.6526 24.4113 50.5582C23.5193 50.4915 23.0533 50.4257 22.806 50.3711L22.1309 61.314ZM25.6669 54.0364C25.0091 53.9316 25.4057 52.5891 25.6955 52.2877C25.7493 52.2297 25.8456 52.247 25.8951 52.2999C26.0261 52.4419 26.0747 52.5926 26.073 52.7537C26.1918 53.2586 26.1901 54.0424 25.7371 54.0424C25.7146 54.0424 25.6912 54.0407 25.6669 54.0364ZM27.1776 53.8337C26.9459 53.3963 26.8522 52.6593 27.2947 52.3155C27.3693 52.2583 27.4665 52.2756 27.5151 52.357C27.6062 52.519 27.6305 52.6922 27.6279 52.8689C27.7103 53.2248 27.6947 53.5756 27.3971 53.877C27.3728 53.9004 27.3415 53.9116 27.3094 53.9116C27.2574 53.9116 27.2027 53.8822 27.1776 53.8337ZM24.0807 53.9879C23.6668 53.6025 23.6963 52.868 24.0208 52.4376C24.0382 52.4142 24.0599 52.3995 24.0815 52.3891C24.0859 52.3839 24.0876 52.3796 24.0894 52.3744C24.1379 52.3007 24.2568 52.2895 24.3115 52.3605C24.6681 52.8178 24.6534 53.5176 24.3019 53.9731C24.2707 54.013 24.2282 54.0329 24.1874 54.0329C24.1501 54.0329 24.1119 54.019 24.0807 53.9879Z" fill="#3E1860"/>
</g>
<mask id="mask23_4_5" style="mask-type:luminance" maskUnits="userSpaceOnUse" x="22" y="50" width="8" height="12">
<path d="M22.1311 61.3141L29.0928 61.2561L29.0121 58.5331L28.4767 58.5089L27.2879 55.96L26.1937 58.7436L25.4007 58.7081L24.1624 55.9877L22.3151 59.1333L22.3628 58.0585L24.1529 54.9666L24.5486 54.9848L25.6063 57.9243L25.89 57.9372L27.0667 54.5898L27.6316 54.6158L28.7535 57.3873L28.9644 56.865L28.8672 53.5601C28.842 53.6346 28.8082 53.7082 28.7587 53.7783C28.6954 53.8667 28.5131 53.858 28.5045 53.7281C28.4776 53.4241 28.4359 53.1218 28.488 52.8196C28.514 52.6602 28.5912 52.3562 28.7934 52.3666C28.8082 52.3675 28.8195 52.371 28.8316 52.3744L28.7891 50.9272C27.5968 50.8207 25.7347 50.6526 24.4115 50.5582C23.5186 50.4916 23.0535 50.4257 22.8062 50.3712L22.1311 61.3141ZM25.6662 54.0364C25.0093 53.9316 25.4059 52.5892 25.6957 52.2878C25.7495 52.2298 25.8458 52.2471 25.8953 52.2999C26.0254 52.442 26.0749 52.5927 26.0723 52.7538C26.192 53.2587 26.1894 54.0425 25.7365 54.0425C25.7148 54.0425 25.6913 54.0399 25.6662 54.0364ZM27.1777 53.8338C26.9461 53.3964 26.8523 52.6594 27.2949 52.3155C27.3686 52.2584 27.4667 52.2757 27.5153 52.3562C27.6064 52.5191 27.6307 52.6923 27.6281 52.8689C27.7105 53.2249 27.6949 53.5757 27.3973 53.8762C27.373 53.8996 27.3417 53.9117 27.3096 53.9117C27.2576 53.9117 27.2029 53.8823 27.1777 53.8338ZM24.08 53.9879C23.667 53.6025 23.6965 52.8681 24.021 52.4376C24.0383 52.4143 24.06 52.3995 24.0809 52.3891C24.0861 52.3839 24.0878 52.3796 24.0887 52.3744C24.1381 52.3008 24.257 52.2895 24.3117 52.3606C24.6683 52.8178 24.6536 53.5176 24.3021 53.9732C24.2709 54.013 24.2284 54.0321 24.1876 54.0321C24.1503 54.0321 24.1121 54.0191 24.08 53.9879Z" fill="white"/>
</mask>
<g mask="url(#mask23_4_5)">
<path d="M22.1311 61.3141H29.0928V50.372H22.1311V61.3141Z" fill="#3E1860"/>
</g>
</svg>
