<svg width="1024" height="693" viewBox="0 0 1024 693" fill="none" xmlns="http://www.w3.org/2000/svg">
<mask id="mask0_62_641" style="mask-type:alpha" maskUnits="userSpaceOnUse" x="0" y="0" width="1024" height="693">
<rect width="1024" height="693" fill="#F6174E"/>
</mask>
<g mask="url(#mask0_62_641)">
<rect width="1024" height="693" fill="#F6174E"/>
<path d="M620 543.417C617.043 542.758 614.085 542.517 611.128 542.275C610.985 542.623 610.842 542.971 610.7 543.318C613.565 544.82 616.43 546.321 619.648 547.911C620 546.611 620 545.222 620 543.417Z" fill="#7F0320"/>
<path d="M244.933 -61.7755C238.889 -71.9386 231.044 -79.6503 220.273 -83.8943C217.46 -85.0026 213.946 -86.1818 211.268 -85.4494C201.738 -82.8426 198.57 -79.3956 202.389 -69.1565C207.209 -56.2342 217.44 -48.2163 230.066 -43.3096C234.728 -41.4979 239.867 -41.3808 243.422 -45.3119C247.646 -49.9835 248.267 -55.6629 244.933 -61.7755Z" fill="#7F0320"/>
<path d="M122.62 129.349C128.687 137.363 135.141 144.216 144.559 147.864C153.051 151.154 159.958 143.847 158.879 136.439C158.392 133.098 157.482 129.577 155.804 126.696C150.898 118.275 144.326 111.164 135.511 106.86C132.38 105.332 128.049 105.11 124.542 105.767C118.784 106.846 116.072 112.787 118.001 119.169C119.035 122.592 120.928 125.755 122.62 129.349Z" fill="#7F0320"/>
<path d="M191.037 110.96C185.431 107.682 180.402 103.98 174.88 101.29C170.243 99.0308 165.628 100.942 162.343 104.614C158.995 108.357 160.319 112.825 162.223 116.731C166.979 126.485 174.252 134.136 183.541 139.613C186.965 141.632 191.218 143.585 194.986 143.399C202.489 143.028 206.499 135.687 202.977 127.93C200.19 121.791 195.336 116.591 191.037 110.96Z" fill="#7F0320"/>
<path d="M59.079 75.2995C64.17 72.4505 65.6351 67.6549 63.4656 63.6C57.216 51.919 49.5171 41.3752 35.0934 38.7294C28.2433 37.4728 22.7138 39.3298 19.8789 44.1245C17.4402 48.2492 18.337 54.9833 22.4747 59.6233C29.9559 68.0126 38.8759 74.364 50.1225 76.505C52.8367 77.0217 55.8654 75.8862 59.079 75.2995Z" fill="#7F0320"/>
<path d="M205.278 150.583C204.897 156.644 207.514 161.164 210.898 165.34C216.837 172.666 222.85 180.056 231.972 183.56C240.057 186.666 246.585 180.51 245.719 171.844C245.168 166.33 242.944 161.857 239.377 158.27C233.38 152.239 226.843 146.733 220.389 141.173C217.368 138.57 214.168 139.132 211.623 142.028C209.357 144.605 207.403 147.457 205.278 150.583Z" fill="#7F0320"/>
<path d="M88.8739 98.2851C94.1342 100.377 99.1247 103.001 104.369 103.69C112.672 104.782 118.061 97.4799 115.259 89.4681C111.527 78.8016 99.5919 66.5927 86.1668 65.1451C81.5834 64.6509 77.4348 66.354 75.1478 70.3945C72.3123 75.4039 72.7045 80.9504 76.2127 85.3597C79.8732 89.9603 84.5087 93.7851 88.8739 98.2851Z" fill="#7F0320"/>
<path d="M331.054 72.9848C326.726 63.5853 320.98 56.2082 311.089 52.7745C306.02 51.0148 301.571 52.0769 297.652 55.1459C293.315 58.5426 293.709 63.3882 295.463 67.8252C299.557 78.1775 306.013 86.7797 316.029 92.1131C324.074 96.397 332.215 91.3426 332.181 82.2051C332.17 79.2495 331.554 76.296 331.054 72.9848Z" fill="#7F0320"/>
<path d="M270.21 145.766C265.06 142.599 260.119 140.078 254.203 142.377C249.011 144.394 246.179 151.188 248.707 156.158C253.436 165.457 259.878 173.399 268.384 179.517C273.773 183.392 279.348 183.505 283.886 180.134C287.76 177.257 288.694 172.007 286.354 165.693C283.269 157.368 277.196 151.419 270.21 145.766Z" fill="#7F0320"/>
<path d="M233.174 17.8742C228.161 13.0937 223.746 8.02659 218.368 4.38001C215.45 2.40137 210.874 2.24659 207.079 2.35905C203.355 2.46934 199.401 8.55418 199.688 12.3769C200.401 21.8853 215.789 39.8498 224.972 43.0593C232.612 45.7292 240.521 36.9705 238.326 29.9074C237.073 25.8743 235.048 22.0809 233.174 17.8742Z" fill="#7F0320"/>
<path d="M236.278 62.3973C233.947 69.1239 237.313 74.2534 240.798 78.5958C245.079 83.9309 250.245 88.698 255.608 92.9861C262.119 98.1926 267.643 98.6997 271.449 95.612C275.092 92.6563 275.948 85.3823 272.614 78.9284C267.839 69.6882 261.121 62.0405 251.755 57.1208C244.567 53.3446 240.563 54.7064 236.278 62.3973Z" fill="#7F0320"/>
<path d="M46.9727 87.8708C40.3132 91.7636 39.6029 98.4613 43.7723 103.759C50.2499 111.989 58.6159 118.073 67.9748 122.442C72.2185 124.423 77.3997 124.817 81.201 120.26C84.8203 115.921 84.1008 111.214 81.999 106.733C78.2695 98.7811 71.9941 93.3315 63.9449 89.907C58.6063 87.6357 53.2948 85.085 46.9727 87.8708Z" fill="#7F0320"/>
<path d="M172.287 176.755C177.312 182.265 181.845 187.751 189.973 187.735C196.597 187.722 202.751 180.512 199.923 173.694C195.537 163.121 188.472 154.935 178.553 149.606C173.877 147.094 165.94 147.488 162.88 152.52C160.262 156.825 161.087 164.861 165.18 169.312C167.421 171.749 169.745 174.11 172.287 176.755Z" fill="#7F0320"/>
<path d="M128.803 179.073C134.77 183.472 140.307 187.871 146.21 191.707C149.883 194.094 154.407 194.478 157.834 191.381C161.302 188.246 161.739 183.825 159.813 179.522C156.516 172.158 153.393 164.568 146.743 159.462C141.981 155.805 136.572 153.386 130.323 154.214C123.798 155.078 120.278 161.505 122.832 168.692C124.112 172.293 126.591 175.467 128.803 179.073Z" fill="#7F0320"/>
<path d="M179.755 -53.9905C174.979 -46.2056 178.463 -31.0147 186.207 -25.6682C191.391 -22.0891 196.853 -18.996 203.695 -20.3073C210.756 -21.6606 215.174 -29.3601 211.881 -35.7448C208.939 -41.4483 205.642 -47.0474 201.85 -52.2151C196.39 -59.6576 186.372 -60.3511 179.755 -53.9905Z" fill="#7F0320"/>
<path d="M267.612 19.2439C263.088 14.2119 257.9 15.4767 253.118 17.4058C248.704 19.1864 247.524 23.0496 247.495 27.9395C247.428 39.1553 260.239 53.2122 268.771 56.4533C271.609 57.5313 276.264 56.8069 278.789 55.0446C282.762 52.2704 284.382 47.1086 281.981 42.6117C277.736 34.6636 272.627 27.1773 267.612 19.2439Z" fill="#7F0320"/>
<path d="M279.16 -40.173C289.816 -42.0184 293.766 -48.743 289.453 -58.0668C285.239 -67.1781 280.144 -75.8489 269.255 -78.441C264.903 -79.4769 260.579 -80.2366 256.777 -76.3877C253.009 -72.5733 253.063 -68.0248 254.865 -63.9852C259.716 -53.1155 266.907 -44.2468 279.16 -40.173Z" fill="#7F0320"/>
<path d="M236.602 -33.6678C225.421 -36.1222 218.819 -29.5627 220.61 -18.8362C222.249 -9.02311 228.184 -2.26154 236.163 2.18572C239.763 4.19268 245.842 4.2163 249.734 2.5931C254.241 0.713433 253.996 -4.94431 253.617 -9.7201C252.723 -20.974 247.39 -29.0253 236.602 -33.6678Z" fill="#7F0320"/>
<path d="M347.251 30.7731C344.438 28.1607 342.052 25.5714 339.286 23.4844C333.829 19.367 330.207 19.1357 325.78 22.1096C321.814 24.7745 320.019 29.5869 322.136 35.4364C325.91 45.862 332.742 54.1274 342.36 59.7509C346.545 62.1979 350.871 61.0556 354.278 57.8575C358.155 54.2183 357.937 49.1973 356.138 45.0282C353.988 40.0461 350.446 35.6648 347.251 30.7731Z" fill="#7F0320"/>
<path d="M340.677 118.312C335.127 113.232 329.528 109.208 321.799 112.028C316.735 113.876 314.565 118.658 315.691 123.975C317.754 133.716 323.74 140.865 331.011 146.962C334.452 149.847 338.969 151.614 343.544 149.269C347.946 147.014 349.254 143.071 349.434 138.107C349.728 130.044 345.335 124.386 340.677 118.312Z" fill="#7F0320"/>
<path d="M152.762 76.2522C147.683 71.5278 142.889 67.4308 135.965 65.8879C131.061 64.7953 128.026 66.2948 124.83 69.2056C121.162 72.5466 121.615 77.0525 122.768 80.7742C125.206 88.6409 144.442 101.676 151.324 101.515C158.443 101.348 162.524 96.744 160.152 89.8737C158.525 85.1594 155.437 80.9492 152.762 76.2522Z" fill="#7F0320"/>
<path d="M215.373 48.5838C210.206 45.9064 204.093 46.272 200.868 49.2519C196.753 53.0549 197.355 57.5791 199.186 62.073C202.528 70.2704 207.886 76.9653 215.623 81.3158C220.177 83.8765 225.345 85.494 230.294 82.143C234.825 79.075 236.232 74.7564 233.891 69.6908C229.887 61.0287 224.283 53.5465 215.373 48.5838Z" fill="#7F0320"/>
<path d="M163.77 38.2274C168.301 41.5788 172.394 44.9886 176.911 47.6883C181.139 50.2148 185.833 50.4103 189.977 47.1891C192.681 45.0876 193.394 37.937 191.599 33.6293C187.82 24.561 181.329 18.1196 172.4 14.1432C167.356 11.8972 161.525 12.7286 158.551 16.128C154.931 20.2659 154.861 24.8535 157.583 29.4193C159.356 32.3935 161.525 35.1318 163.77 38.2274Z" fill="#7F0320"/>
<path d="M8.9344 -27.9758C13.6189 -16.557 26.3318 -7.29505 36.7938 -7.46177C45.1672 -7.59519 49.8489 -14.8541 45.946 -22.3191C40.7254 -32.3042 32.0624 -38.3988 21.2511 -40.7157C13.3766 -42.4033 7.0362 -37.4834 8.9344 -27.9758Z" fill="#7F0320"/>
<path d="M321.753 163.476C322.53 155.548 319.385 149.7 313.893 144.96C310.141 141.722 306.468 138.276 302.295 135.667C295.758 131.58 288.087 135.04 286.878 142.547C286.479 145.018 287.422 147.838 288.226 150.346C291.492 160.529 298.502 167.154 308.479 170.628C315.556 173.093 319.221 171.123 321.753 163.476Z" fill="#7F0320"/>
<path d="M47.9629 9.03902C43.9287 5.70342 40.1006 2.53413 35.9809 -0.195C31.2717 -3.31451 26.1384 -5.07128 20.5082 -2.52071C15.8289 -0.400963 13.2746 4.84425 14.4034 9.79515C16.8224 20.4056 34.4419 31.4765 45.0373 29.0434C50.6642 27.7514 53.8657 19.3881 50.9058 13.4386C50.1794 11.9785 49.0074 10.7401 47.9629 9.03902Z" fill="#7F0320"/>
<path d="M54.0918 31.2624C55.2097 35.0521 55.3951 39.4021 57.6646 41.6112C63.1766 46.9767 69.4714 51.615 75.8166 56.0192C79.7185 58.7276 84.4059 58.9353 88.2189 55.5351C91.401 52.6973 92.276 44.5857 89.273 41.1775C83.8373 35.0085 78.235 28.7491 71.716 23.8362C64.7058 18.553 55.7345 22.6494 54.0918 31.2624Z" fill="#7F0320"/>
<path d="M303.433 124.389C310.059 120.997 312.088 117.134 309.817 109.989C307.195 101.739 302.781 94.5482 294.924 89.9339C290.197 87.1578 285.591 87.6313 281.447 90.3698C277.376 93.0596 277.236 97.461 278.074 102.018C279.563 110.122 284.086 116.328 290.206 121.377C293.832 124.368 298.115 126.309 303.433 124.389Z" fill="#7F0320"/>
<path d="M182.988 -90.9765C179.043 -96.954 174.931 -101.797 167.213 -102.045C157.19 -102.368 152.131 -95.8205 154.531 -85.7429C155.392 -82.1274 157.238 -78.565 159.348 -75.4636C164.798 -67.4503 174.259 -65.0498 180.9 -69.6688C186.502 -73.5646 189.769 -82.6037 182.988 -90.9765Z" fill="#7F0320"/>
<path d="M210.881 118.108C215.054 120.874 218.683 124.5 222.973 125.642C230.798 127.727 235.123 119.814 233.78 114.149C231.076 102.745 224.778 94.0914 213.357 89.8073C208.943 88.1514 205.165 89.3013 201.897 92.1931C198.514 95.1866 198.736 99.4806 200.487 102.778C203.311 108.098 207.197 112.854 210.881 118.108Z" fill="#7F0320"/>
<path d="M123.392 -32.0096C116.901 -26.9271 115.313 -22.6228 119.887 -16.6349C124.831 -10.1636 131.152 -4.62781 137.425 0.660583C140.508 3.25955 144.837 3.33426 148.632 0.856415C152.536 -1.69281 153.056 -5.5368 152.636 -9.69382C151.594 -20.0169 135.847 -33.4625 125.591 -32.7917C124.969 -32.751 124.369 -32.375 123.392 -32.0096Z" fill="#7F0320"/>
<path d="M263.408 -8.50424C267.98 -4.1882 272.141 0.0894473 276.786 3.75549C280.376 6.58884 284.549 6.33414 288.272 3.50119C292.118 0.575562 292.673 -3.74304 291.322 -7.73526C288.192 -16.9831 282.668 -24.7376 273.984 -29.5699C270.201 -31.6757 265.595 -32.7782 261.903 -29.2633C257.796 -25.3529 258.39 -20.1715 259.686 -15.3006C260.301 -12.9872 261.999 -10.9619 263.408 -8.50424Z" fill="#7F0320"/>
<path d="M283.336 18.8187C282.481 30.9724 289.786 37.9121 298.174 44.1302C299.457 45.0815 301.32 46.0604 302.746 45.8558C306.866 45.265 311.735 45.1049 314.652 42.7353C316.394 41.3208 315.635 35.935 314.883 32.5849C314.067 28.9457 312.213 25.452 310.356 22.1513C306.369 15.065 298.284 11.0816 290.56 12.9802C287.88 13.639 285.75 16.5362 283.336 18.8187Z" fill="#7F0320"/>
<path d="M155.289 -62.3613C152.119 -63.1776 149.193 -64.6107 146.466 -64.299C139.795 -63.5365 135.798 -56.1721 138.409 -49.6961C141.277 -42.5834 145.991 -36.6824 152.18 -32.1554C156.633 -28.8991 162.502 -29.1782 166.379 -32.3293C170.291 -35.5085 171.718 -40.9849 169.752 -46.0466C167.007 -53.1145 162.716 -58.8927 155.289 -62.3613Z" fill="#7F0320"/>
<path d="M193.442 -7.18871C189.632 -13.9336 184.421 -18.6773 177.974 -22.1256C172.303 -25.1591 164.961 -24.6587 161.518 -21.0079C159.065 -18.4078 159.055 -10.1916 162.31 -5.89592C167.046 0.356491 172.726 5.92693 180.729 7.60109C183.968 8.27867 187.761 7.73863 190.944 6.67754C192.646 6.11 194.389 3.37199 194.673 1.40587C195.054 -1.24129 194.044 -4.08873 193.442 -7.18871Z" fill="#7F0320"/>
<path d="M80.7595 -35.8661C84.0239 -33.314 86.9994 -30.9741 90.0627 -28.7556C96.0124 -24.4464 102.438 -25.1521 108.727 -27.5822C112.943 -29.2116 113.062 -33.5169 111.163 -36.2723C107.494 -41.5949 103.012 -46.4378 98.395 -51.0016C94.3741 -54.976 89.6307 -57.7889 83.3968 -57.2071C76.8159 -56.593 72.8682 -51.4532 75.2045 -45.1968C76.4111 -41.9658 78.7067 -39.1413 80.7595 -35.8661Z" fill="#7F0320"/>
<path d="M99.5723 120.858C94.6445 119.907 90.7302 121.004 87.9078 124.839C85.2735 128.418 85.1293 132.545 87.4008 136.089C92.2531 143.66 98.1467 150.135 107.556 152.25C114.579 153.829 120.608 148.896 120.06 141.713C119.462 133.88 108.3 121.155 99.5723 120.858Z" fill="#7F0320"/>
<path d="M352.824 83.429C341.806 83.4302 336.763 91.4815 341.27 101.082C344.487 107.935 348.91 113.617 356.31 116.127C366.487 119.579 371.367 112.967 370.704 104.318C369.993 95.0445 363.097 88.5235 355.664 83.1957C355.165 82.8381 354.063 83.3217 352.824 83.429Z" fill="#7F0320"/>
<path d="M128.169 48.4492C127.933 39.1169 122.419 33.2883 115.985 28.1869C111.976 25.0081 108.046 21.3954 102 23.2164C94.8335 25.3751 91.6604 31.8801 95.3843 38.3076C99.9445 46.1789 106.841 51.772 114.987 55.4563C121.612 58.4524 125.419 56.173 128.169 48.4492Z" fill="#7F0320"/>
<path d="M88.3443 8.1951C87.0496 -0.434418 74.0657 -13.1049 65.9824 -14.0308C61.0225 -14.5989 57.0642 -12.8898 54.6481 -8.50603C52.0455 -3.78362 54.3089 0.436226 57.534 3.48475C62.6123 8.28522 68.1202 12.7372 73.9073 16.6558C81.2469 21.6255 88.1317 17.5686 88.3443 8.1951Z" fill="#7F0320"/>
<path d="M104.696 -52.6632C106.787 -51.035 108.649 -49.7085 110.444 -48.2953C115.462 -44.3426 122.339 -43.9517 125.96 -47.4544C130.644 -51.985 131.663 -60.519 127.11 -64.9533C122.794 -69.1562 117.689 -72.7252 112.458 -75.7578C108.104 -78.2821 101.549 -76.4355 98.7944 -72.985C96.3719 -69.9501 96.4517 -63.8947 99.1433 -59.9135C100.778 -57.4961 102.664 -55.2489 104.696 -52.6632Z" fill="#7F0320"/>
<path d="M96.1127 -18.9192C88.4006 -17.5041 84.8829 -12.2926 87.329 -5.4946C90.2934 2.74393 96.5414 8.20505 104.256 11.9696C107.859 13.7278 111.636 13.5786 114.093 10.1049C116.767 6.32517 119.369 1.89954 117.046 -2.78348C112.834 -11.2759 106.372 -17.3639 96.1127 -18.9192Z" fill="#7F0320"/>
<path d="M333.538 -1.48711C336.661 7.34998 342.1 13.8621 350.211 17.5938C352.395 18.5986 356.006 18.0023 358.325 16.8542C361.579 15.2428 362.202 11.8348 361.351 8.19804C359.226 -0.890702 354.092 -8.06374 347.215 -14.0677C344.06 -16.8224 340.277 -18.4902 336.389 -15.6025C332.626 -12.8072 330.142 -9.2398 332.583 -4.19042C332.941 -3.45052 333.118 -2.62374 333.538 -1.48711Z" fill="#7F0320"/>
<path d="M319.173 8.46402C327.401 3.69913 328.566 0.203407 324.313 -7.82848C320.661 -14.7239 316.663 -21.4234 308.131 -23.3404C301.679 -24.7902 294.919 -18.5145 296.533 -12.272C299.014 -2.67239 304.497 4.55807 314.016 8.15961C315.472 8.71036 317.216 8.4978 319.173 8.46402Z" fill="#7F0320"/>
<path d="M247.568 101.468C240.961 105.269 239.184 110.36 242.694 116.516C245.04 120.627 248.173 124.299 251.051 128.094C254.185 132.227 258.764 132.417 263.27 131.898C268.396 131.308 270.577 126.752 269.739 119.325C268.886 111.774 261.452 102.85 254.073 101.005C252.167 100.529 249.978 101.186 247.568 101.468Z" fill="#7F0320"/>
<path d="M247.027 -102.968C243.048 -107.814 239.947 -113.02 232.626 -112.542C225.664 -112.087 222.069 -108.645 222.37 -101.583C222.613 -95.8801 230.937 -84.6329 236.244 -82.6107C240.389 -81.0314 244.104 -80.7876 247.633 -84.2131C251.341 -87.8119 251.676 -91.9925 250.3 -96.4821C249.633 -98.656 248.291 -100.623 247.027 -102.968Z" fill="#7F0320"/>
<path d="M198.906 86.0153C198.092 76.9539 190.479 66.6887 182.331 66.0189C172.765 65.2325 167.105 71.0429 170.377 80.0334C173.09 87.4856 184.314 95.8153 190.381 95.1068C195.99 94.4519 198.606 92.3706 198.906 86.0153Z" fill="#7F0320"/>
<path d="M147.905 64.064C152.139 66.426 155.916 69.5349 160.153 70.4059C168.021 72.0231 172.213 63.9274 168.735 56.8092C165.241 49.6562 159.635 44.0295 152.149 41.2351C149.404 40.2104 145.129 40.8273 142.567 42.3753C139.126 44.4541 138.161 48.7986 140.118 52.5513C142.194 56.5294 145.108 60.0696 147.905 64.064Z" fill="#7F0320"/>
<path d="M72.1578 -90.2137C67.38 -91.2711 62.7921 -90.294 60.6096 -86.8009C58.1563 -82.8741 59.0549 -78.0631 61.7293 -73.8058C66.328 -66.4851 73.2195 -62.4744 81.2405 -60.5247C83.2534 -60.0354 86.7507 -61.5156 88.0246 -63.2335C89.4261 -65.1235 90.0927 -68.7498 89.2378 -70.8808C87.2944 -75.7252 84.7133 -80.5161 81.4324 -84.5483C79.3518 -87.1052 75.547 -88.2591 72.1578 -90.2137Z" fill="#7F0320"/>
<path d="M322.217 -50.2125C317.749 -53.2644 314.064 -56.9115 308.271 -56.3857C302.838 -55.8927 298.687 -53.1467 299.328 -47.9687C299.886 -43.464 301.91 -38.1874 305.102 -35.1775C310.362 -30.2167 316.722 -25.496 325.007 -29.7322C329.495 -32.027 331.153 -35.1955 329.07 -39.7714C327.405 -43.43 324.756 -46.6409 322.217 -50.2125Z" fill="#7F0320"/>
<path d="M189.152 -103.257C192.846 -96.5464 197.101 -91.2215 205.45 -91.9826C210.06 -92.4028 214.357 -97.1003 214.403 -101.717C214.458 -107.187 205.616 -119.393 200.833 -121.792C194.866 -124.785 186.749 -120.738 187.053 -112.219C187.157 -109.33 188.325 -106.48 189.152 -103.257Z" fill="#7F0320"/>
<path d="M34.1293 -61.107C36.8106 -58.8908 39.0905 -56.7228 41.6432 -54.9467C45.9894 -51.9229 51.2173 -52.1356 54.3795 -55.1776C58.0296 -58.6888 58.4174 -64.0894 55.3827 -68.7344C54.4904 -70.1003 53.3158 -71.4124 52.8818 -72.9246C50.895 -79.8488 38.7279 -83.9633 31.423 -79.895C26.9854 -77.4236 25.7086 -72.2036 28.6219 -67.9727C30.2167 -65.6569 32.0983 -63.5387 34.1293 -61.107Z" fill="#7F0320"/>
<path d="M144.734 -87.5512C142.27 -93.6366 138.689 -98.1693 132.712 -100.423C128.738 -101.921 124.96 -101.319 122.152 -98.2903C119.478 -95.4052 117.661 -92.1653 118.756 -87.5639C120.623 -79.7189 125.719 -75.1406 132.563 -72.0507C141.415 -68.0546 146.128 -74.4284 145.924 -82.3285C145.882 -83.9494 145.215 -85.5542 144.734 -87.5512Z" fill="#7F0320"/>
<path d="M102.004 -82.219C106.343 -82.5529 110.648 -83.4122 111.532 -87.5873C112.597 -92.6193 113.282 -98.2116 108.679 -102.402C103.349 -107.254 97.0284 -109.248 89.9466 -108.101C84.3085 -107.188 81.8522 -102.922 83.3555 -97.4563C84.9876 -91.5222 95.0722 -83.0969 102.004 -82.219Z" fill="#7F0320"/>
<path d="M284.401 -92.7155C280.666 -89.0864 280.419 -84.8922 282.43 -81.0584C286.157 -73.9544 291.235 -68.0142 299.441 -65.6805C304.645 -64.2004 308.652 -67.0954 308.734 -72.4747C308.859 -80.7399 300.791 -92.7575 293.196 -94.5124C290.613 -95.1092 287.533 -93.55 284.401 -92.7155Z" fill="#7F0320"/>
<path d="M360.21 68.0814C359.574 75.758 365.376 86.699 371.62 88.737C375.313 89.9423 379.393 89.8666 382.753 86.6709C386.376 83.2258 386.862 78.9097 385.481 74.8009C383.811 69.8276 381.032 65.3486 376.045 62.5527C369.51 58.8893 363.721 60.6337 360.21 68.0814Z" fill="#7F0320"/>
<path d="M146.991 32.0844C151.024 26.6454 151.445 24.1451 147.274 19.3722C143.893 15.504 139.831 11.9673 135.442 9.32788C131.925 7.21265 127.73 8.68039 125.102 11.8581C122.348 15.1875 122.211 19.3335 124.347 23.0818C127.438 28.5055 131.125 33.6698 138.097 34.047C140.997 34.2039 143.969 33.0317 146.991 32.0844Z" fill="#7F0320"/>
<path d="M70.2077 -24.7981C73.2294 -27.489 73.6428 -30.3804 72.1444 -33.6108C68.8817 -40.6446 64.2111 -46.2712 56.3002 -48.1004C52.6774 -48.9381 48.6951 -48.1079 47.3607 -44.4747C46.2822 -41.5387 45.8573 -37.1195 47.3521 -34.7553C49.9971 -30.5716 54.0155 -27.0457 58.0329 -24.0019C61.7414 -21.1921 66.1024 -21.2467 70.2077 -24.7981Z" fill="#7F0320"/>
<path d="M361.388 37.8576C361.981 45.6207 366.851 50.3838 372.344 54.0029C374.437 55.3817 379.086 54.7253 381.491 53.2445C383.711 51.8781 385.793 48.0912 385.645 45.5008C385.249 38.5316 381.442 33.0085 375.293 29.4757C368.546 25.5992 361.595 29.6606 361.388 37.8576Z" fill="#7F0320"/>
<path d="M1025.05 540.233C995.295 544.69 971.855 531.973 950.795 512.734C945.414 507.817 939.739 503.151 933.802 498.928C919.66 488.87 905.159 492.084 894.307 507.181C885.159 519.91 874.825 531.197 859.561 536.932C843.575 542.938 827.352 542.718 811.233 538.624C796.226 534.813 781.517 529.832 766.663 525.412C764.784 524.853 762.823 524.57 760.724 523.167C764.067 503.954 764.956 485.748 760.237 467.574C772.039 470.429 783.895 473.081 795.627 476.202C805.68 478.876 815.659 481.88 825.547 485.115C836.011 488.539 842.392 483.441 848.946 476.068C857.541 466.4 866.326 456.39 876.812 449.085C884.292 443.873 894.683 442.798 903.816 440.011C920.037 435.062 935.855 437.784 950.38 445.084C961.291 450.568 971.051 458.432 981.034 465.638C986.945 469.905 992.098 475.214 997.938 479.591C1009.76 488.448 1013.36 488.145 1024.61 478.241C1025.05 498.625 1025.05 519.116 1025.05 540.233Z" fill="#7F0320"/>
<path d="M942.523 582.137C952.119 582.029 959.581 586.671 966.697 592.525C974.516 598.957 982.661 604.994 990.705 611.151C993.64 613.397 996.267 613.143 999.698 611.212C1007.69 606.714 1016.11 602.978 1024.71 598.589C1025.05 619.182 1025.05 640.118 1024.73 661.185C1017.8 663.669 1011.36 667.04 1004.54 668.186C983.874 671.66 966.626 663.635 951.239 650.528C945.791 645.888 940.304 641.294 934.669 636.54C926.579 648.473 917.873 658.86 902.977 658.375C889.953 657.951 876.99 655.661 866.132 654.436C873.418 666.484 881.839 680.409 890.26 694.335C868.434 694.335 846.608 694.335 824.157 694.335C820.303 689.518 817.198 684.612 813.822 679.901C802.04 663.46 795.558 645.839 803.703 625.934C811.065 607.943 825.936 597.772 844.421 596.232C858.952 595.022 873.872 598.489 887.979 599.818C895.162 594.684 902.902 589.154 911.464 583.891C922.365 583.485 932.444 582.811 942.523 582.137Z" fill="#7F0320"/>
<path d="M712.537 596.651C721.597 606.381 730.637 616.13 739.721 625.837C754.531 641.665 767.825 658.398 771.743 680.56C772.472 684.685 772.479 688.938 772.818 693.733C754.551 694.335 736.284 694.335 717.391 694.335C718.535 686.363 713.745 680.706 709.214 675.54C697.628 662.331 685.198 649.859 673.667 636.605C662.273 623.509 651.366 609.943 646.597 592.98C647.817 592.975 648.174 593.069 648.583 593.063C648.634 592.962 648.481 593.128 648.633 593.434C649.195 593.888 649.606 594.036 650.376 594.477C670.972 607.331 691.585 607.539 712.537 596.651Z" fill="#7F0320"/>
<path d="M973.629 694.335C981.264 689.415 990.231 687.264 1000.51 688.008C1003.37 690.461 1005.54 692.398 1007.7 694.335C996.553 694.335 985.404 694.335 973.629 694.335Z" fill="#7F0320"/>
<path d="M1011.69 687.9C1012.96 687.983 1014.23 688.065 1015.63 688.765C1015.89 689.609 1016.03 689.825 1016.18 690.031C1018.82 690.037 1021.45 690.044 1024.57 689.523C1025.05 690.713 1025.05 692.43 1025.05 694.335C1021.04 694.335 1017.02 694.335 1012.31 693.907C1011.64 691.619 1011.67 689.76 1011.69 687.9Z" fill="#7F0320"/>
<path d="M1011.18 687.727C1011.67 689.76 1011.64 691.619 1011.66 693.907C1010.71 694.335 1009.7 694.335 1008.2 694.335C1005.54 692.398 1003.37 690.461 1001.11 688.062C1004.23 687.585 1007.45 687.569 1011.18 687.727Z" fill="#7F0320"/>
<path d="M712.345 596.275C691.585 607.539 670.972 607.331 650.19 594.209C649.334 593.304 648.946 593.13 648.481 593.128C648.481 593.128 648.634 592.962 648.344 592.741C647.555 592.39 647.055 592.26 646.555 592.129C646.555 592.129 646.12 592.106 646.009 591.375C643.758 584.709 641.619 578.773 639.479 572.838C639.479 572.838 639.392 572.792 639.503 572.143C639.563 559.134 639.511 546.775 639.459 534.415C645.458 506.575 662.823 487.708 687.812 476.011C698.213 471.142 709.946 468.695 721.336 466.523C727.858 465.279 734.905 466.864 741.719 467.053C747.566 467.216 753.417 467.207 759.751 467.423C764.956 485.748 764.066 503.954 760.411 522.711C748.487 522.598 736.477 520.204 724.962 521.675C703.232 524.452 688.989 540.289 692.719 559.605C695.459 573.795 702.746 585.37 712.345 596.275Z" fill="#7F0320"/>
<path d="M639.24 534.871C639.511 546.775 639.563 559.134 639.534 572.104C635.836 560.292 636.371 547.822 639.24 534.871Z" fill="#1E1E1E"/>
<path d="M639.418 573.382C641.619 578.773 643.758 584.709 645.941 591.168C643.774 585.77 641.565 579.848 639.418 573.382Z" fill="#1E1E1E"/>
<path d="M646.533 592.191C647.055 592.26 647.555 592.39 648.293 592.842C648.175 593.069 647.817 592.975 646.962 592.629C646.464 592.377 646.511 592.254 646.533 592.191Z" fill="#1E1E1E"/>
<path d="M942.287 581.659C932.444 582.811 922.365 583.485 911.946 583.858C921.474 579.165 931.635 578.544 942.287 581.659Z" fill="#7F0320"/>
<path d="M648.633 593.434C648.946 593.13 649.334 593.304 649.831 593.917C649.606 594.036 649.195 593.888 648.633 593.434Z" fill="#1E1E1E"/>
<path d="M1016.13 689.758C1016.03 689.825 1015.89 689.609 1015.73 689.237C1015.69 689.092 1016.08 689.485 1016.13 689.758Z" fill="#7F0320"/>
</g>
</svg>
