<svg width="1024" height="693" viewBox="0 0 1024 693" fill="none" xmlns="http://www.w3.org/2000/svg">
<mask id="mask0_66_137" style="mask-type:alpha" maskUnits="userSpaceOnUse" x="0" y="0" width="1024" height="693">
<rect width="1024" height="693" fill="url(#paint0_linear_66_137)"/>
</mask>
<g mask="url(#mask0_66_137)">
<rect width="1024" height="693" fill="url(#paint1_linear_66_137)"/>
<path d="M544.405 1099.19C541.447 1098.53 538.49 1098.29 535.533 1098.05C535.39 1098.4 535.247 1098.74 535.104 1099.09C537.97 1100.59 540.835 1102.09 544.053 1103.68C544.405 1102.38 544.405 1100.99 544.405 1099.19Z" fill="#3E1860"/>
<path d="M169.338 493.997C163.293 483.834 155.449 476.122 144.677 471.878C141.864 470.77 138.351 469.591 135.673 470.323C126.142 472.93 122.974 476.377 126.794 486.616C131.614 499.538 141.845 507.556 154.471 512.463C159.133 514.275 164.272 514.392 167.827 510.461C172.051 505.789 172.672 500.11 169.338 493.997Z" fill="#3E1860"/>
<path d="M47.025 685.122C53.0921 693.135 59.5456 699.988 68.9638 703.637C77.4559 706.926 84.3631 699.62 83.2839 692.212C82.7971 688.87 81.8868 685.349 80.2087 682.469C75.3025 674.047 68.7307 666.936 59.9154 662.632C56.7848 661.104 52.4532 660.883 48.9462 661.54C43.1884 662.618 40.4768 668.559 42.4054 674.942C43.4396 678.365 45.333 681.528 47.025 685.122Z" fill="#3E1860"/>
<path d="M115.441 666.732C109.835 663.455 104.806 659.753 99.2848 657.063C94.6475 654.803 90.0323 656.714 86.7475 660.387C83.3996 664.13 84.7234 668.597 86.6281 672.503C91.3838 682.257 98.6569 689.909 107.946 695.386C111.37 697.405 115.623 699.357 119.391 699.171C126.894 698.801 130.904 691.459 127.382 683.703C124.595 677.564 119.741 672.363 115.441 666.732Z" fill="#3E1860"/>
<path d="M-16.5163 631.072C-11.4253 628.223 -9.96022 623.427 -12.1297 619.372C-18.3793 607.691 -26.0783 597.148 -40.5019 594.502C-47.3521 593.245 -52.8815 595.102 -55.7164 599.897C-58.1551 604.022 -57.2584 610.756 -53.1206 615.396C-45.6394 623.785 -36.7194 630.136 -25.4728 632.277C-22.7587 632.794 -19.7299 631.659 -16.5163 631.072Z" fill="#3E1860"/>
<path d="M129.683 706.356C129.302 712.416 131.918 716.937 135.303 721.112C141.242 728.438 147.255 735.828 156.377 739.332C164.461 742.438 170.989 736.282 170.123 727.616C169.573 722.102 167.349 717.63 163.782 714.043C157.785 708.012 151.248 702.505 144.794 696.945C141.772 694.343 138.573 694.904 136.027 697.8C133.762 700.378 131.808 703.23 129.683 706.356Z" fill="#3E1860"/>
<path d="M13.2786 654.058C18.5389 656.15 23.5294 658.774 28.774 659.463C37.077 660.554 42.4661 653.252 39.6633 645.241C35.9319 634.574 23.9966 622.365 10.5715 620.918C5.98804 620.423 1.83948 622.127 -0.447563 626.167C-3.28301 631.176 -2.8908 636.723 0.617378 641.132C4.27784 645.733 8.91339 649.558 13.2786 654.058Z" fill="#3E1860"/>
<path d="M255.458 628.757C251.13 619.358 245.384 611.981 235.494 608.547C230.425 606.787 225.975 607.849 222.057 610.918C217.72 614.315 218.113 619.161 219.868 623.598C223.962 633.95 230.417 642.552 240.434 647.886C248.479 652.17 256.62 647.115 256.586 637.978C256.575 635.022 255.958 632.069 255.458 628.757Z" fill="#3E1860"/>
<path d="M194.615 701.538C189.465 698.372 184.523 695.851 178.608 698.149C173.415 700.167 170.583 706.961 173.111 711.931C177.841 721.23 184.282 729.171 192.789 735.289C198.177 739.165 203.753 739.278 208.291 735.907C212.164 733.029 213.099 727.78 210.759 721.466C207.674 713.141 201.601 707.191 194.615 701.538Z" fill="#3E1860"/>
<path d="M157.579 573.647C152.566 568.866 148.151 563.799 142.773 560.153C139.854 558.174 135.279 558.019 131.483 558.132C127.76 558.242 123.806 564.327 124.092 568.149C124.806 577.658 140.193 595.622 149.377 598.832C157.017 601.502 164.926 592.743 162.731 585.68C161.477 581.647 159.452 577.853 157.579 573.647Z" fill="#3E1860"/>
<path d="M160.683 618.17C158.352 624.896 161.718 630.026 165.202 634.368C169.483 639.703 174.65 644.47 180.012 648.759C186.524 653.965 192.047 654.472 195.854 651.385C199.497 648.429 200.353 641.155 197.018 634.701C192.244 625.461 185.526 617.813 176.16 612.893C168.971 609.117 164.968 610.479 160.683 618.17Z" fill="#3E1860"/>
<path d="M-28.6226 643.643C-35.2821 647.536 -35.9924 654.234 -31.8231 659.531C-25.3455 667.761 -16.9794 673.845 -7.62054 678.215C-3.37683 680.196 1.80432 680.59 5.60565 676.032C9.22491 671.693 8.50549 666.987 6.40363 662.505C2.67419 654.554 -3.60126 649.104 -11.6505 645.68C-16.9891 643.408 -22.3005 640.858 -28.6226 643.643Z" fill="#3E1860"/>
<path d="M96.6918 732.528C101.716 738.038 106.25 743.524 114.378 743.508C121.002 743.494 127.156 736.285 124.328 729.467C119.942 718.893 112.877 710.708 102.958 705.379C98.2814 702.867 90.3446 703.26 87.2845 708.292C84.6666 712.597 85.4917 720.634 89.5848 725.084C91.826 727.521 94.1494 729.882 96.6918 732.528Z" fill="#3E1860"/>
<path d="M53.2074 734.845C59.1743 739.245 64.7118 743.644 70.6151 747.48C74.2879 749.866 78.8118 750.251 82.2384 747.153C85.7064 744.019 86.1439 739.598 84.2174 735.294C80.9206 727.93 77.7976 720.341 71.1479 715.235C66.3854 711.577 60.9763 709.158 54.7279 709.986C48.203 710.851 44.6825 717.277 47.237 724.464C48.5167 728.065 50.9959 731.24 53.2074 734.845Z" fill="#3E1860"/>
<path d="M104.159 501.782C99.3834 509.567 102.867 524.758 110.611 530.104C115.795 533.683 121.258 536.777 128.1 535.465C135.161 534.112 139.579 526.412 136.285 520.028C133.343 514.324 130.046 508.725 126.255 503.557C120.795 496.115 110.777 495.421 104.159 501.782Z" fill="#3E1860"/>
<path d="M192.017 575.016C187.493 569.984 182.305 571.249 177.523 573.178C173.109 574.959 171.929 578.822 171.9 583.712C171.833 594.928 184.643 608.985 193.176 612.226C196.014 613.304 200.669 612.579 203.193 610.817C207.167 608.043 208.787 602.881 206.385 598.384C202.141 590.436 197.032 582.95 192.017 575.016Z" fill="#3E1860"/>
<path d="M203.565 515.6C214.221 513.754 218.17 507.029 213.858 497.706C209.643 488.594 204.549 479.924 193.66 477.331C189.308 476.296 184.984 475.536 181.182 479.385C177.413 483.199 177.467 487.748 179.27 491.787C184.121 502.657 191.312 511.526 203.565 515.6Z" fill="#3E1860"/>
<path d="M161.006 522.105C149.826 519.65 143.223 526.21 145.015 536.936C146.654 546.749 152.589 553.511 160.567 557.958C164.168 559.965 170.246 559.989 174.138 558.366C178.645 556.486 178.401 550.828 178.021 546.052C177.128 534.799 171.794 526.747 161.006 522.105Z" fill="#3E1860"/>
<path d="M271.656 586.546C268.843 583.933 266.456 581.344 263.691 579.257C258.234 575.139 254.612 574.908 250.185 577.882C246.218 580.547 244.424 585.359 246.541 591.209C250.315 601.634 257.147 609.9 266.765 615.523C270.95 617.97 275.276 616.828 278.683 613.63C282.559 609.991 282.342 604.97 280.543 600.801C278.393 595.819 274.851 591.437 271.656 586.546Z" fill="#3E1860"/>
<path d="M265.082 674.085C259.531 669.004 253.933 664.98 246.203 667.801C241.139 669.649 238.969 674.43 240.095 679.747C242.158 689.488 248.145 696.638 255.416 702.735C258.857 705.62 263.373 707.386 267.949 705.042C272.351 702.787 273.658 698.843 273.839 693.88C274.133 685.817 269.74 680.158 265.082 674.085Z" fill="#3E1860"/>
<path d="M77.167 632.025C72.0877 627.3 67.2934 623.203 60.3693 621.66C55.4659 620.568 52.4303 622.067 49.2346 624.978C45.5666 628.319 46.0195 632.825 47.1727 636.547C49.6103 644.413 68.8463 657.449 75.7284 657.288C82.8475 657.12 86.9286 652.517 84.5571 645.646C82.9299 640.932 79.8419 636.722 77.167 632.025Z" fill="#3E1860"/>
<path d="M139.777 604.356C134.611 601.679 128.497 602.045 125.273 605.024C121.158 608.827 121.759 613.352 123.591 617.846C126.932 626.043 132.291 632.738 140.028 637.088C144.582 639.649 149.749 641.266 154.698 637.916C159.229 634.847 160.636 630.529 158.295 625.463C154.292 616.801 148.688 609.319 139.777 604.356Z" fill="#3E1860"/>
<path d="M88.1746 594C92.7059 597.351 96.7987 600.761 101.316 603.461C105.543 605.987 110.238 606.183 114.382 602.962C117.086 600.86 117.799 593.709 116.004 589.402C112.225 580.334 105.734 573.892 96.8044 569.916C91.7607 567.67 85.9296 568.501 82.9555 571.9C79.3353 576.038 79.2655 580.626 81.9875 585.192C83.7606 588.166 85.9296 590.904 88.1746 594Z" fill="#3E1860"/>
<path d="M-66.6609 527.797C-61.9764 539.216 -49.2635 548.477 -38.8016 548.311C-30.4282 548.177 -25.7464 540.918 -29.6493 533.453C-34.8699 523.468 -43.5329 517.374 -54.3442 515.057C-62.2187 513.369 -68.5591 518.289 -66.6609 527.797Z" fill="#3E1860"/>
<path d="M246.158 719.248C246.935 711.321 243.79 705.472 238.298 700.733C234.545 697.495 230.873 694.048 226.7 691.439C220.163 687.352 212.492 690.813 211.282 698.319C210.884 700.79 211.826 703.611 212.631 706.119C215.897 716.301 222.907 722.927 232.883 726.401C239.961 728.866 243.626 726.895 246.158 719.248Z" fill="#3E1860"/>
<path d="M-27.6324 564.812C-31.6667 561.476 -35.4948 558.307 -39.6145 555.578C-44.3236 552.458 -49.4569 550.701 -55.0872 553.252C-59.7664 555.372 -62.3207 560.617 -61.192 565.568C-58.7729 576.178 -41.1534 587.249 -30.558 584.816C-24.9312 583.524 -21.7296 575.161 -24.6895 569.211C-25.416 567.751 -26.588 566.513 -27.6324 564.812Z" fill="#3E1860"/>
<path d="M-21.5036 587.035C-20.3856 590.825 -20.2002 595.175 -17.9307 597.384C-12.4187 602.749 -6.12398 607.387 0.221237 611.792C4.12315 614.5 8.81053 614.708 12.6235 611.308C15.8057 608.47 16.6806 600.358 13.6777 596.95C8.24199 590.781 2.63969 584.522 -3.87935 579.609C-10.8895 574.326 -19.8609 578.422 -21.5036 587.035Z" fill="#3E1860"/>
<path d="M227.838 680.162C234.464 676.77 236.493 672.906 234.222 665.761C231.6 657.511 227.186 650.321 219.329 645.706C214.602 642.93 209.996 643.404 205.851 646.142C201.781 648.832 201.641 653.234 202.478 657.79C203.968 665.895 208.491 672.101 214.611 677.149C218.237 680.14 222.52 682.082 227.838 680.162Z" fill="#3E1860"/>
<path d="M107.393 464.796C103.448 458.819 99.3356 453.976 91.6177 453.727C81.5946 453.404 76.5358 459.952 78.936 470.03C79.7971 473.645 81.6427 477.208 83.7523 480.309C89.2029 488.322 98.6633 490.723 105.305 486.104C110.907 482.208 114.173 473.169 107.393 464.796Z" fill="#3E1860"/>
<path d="M135.286 673.88C139.459 676.647 143.088 680.272 147.377 681.415C155.202 683.5 159.528 675.587 158.185 669.922C155.481 658.518 149.182 649.864 137.762 645.58C133.347 643.924 129.57 645.074 126.301 647.966C122.918 650.959 123.14 655.253 124.891 658.551C127.716 663.87 131.602 668.626 135.286 673.88Z" fill="#3E1860"/>
<path d="M47.7967 523.763C41.3054 528.845 39.7179 533.15 44.2921 539.138C49.2355 545.609 55.557 551.145 61.83 556.433C64.9129 559.032 69.242 559.107 73.0368 556.629C76.9409 554.08 77.461 550.236 77.0411 546.079C75.9984 535.756 60.2514 522.31 49.9952 522.981C49.3734 523.021 48.7735 523.398 47.7967 523.763Z" fill="#3E1860"/>
<path d="M187.813 547.268C192.384 551.584 196.546 555.862 201.191 559.528C204.78 562.361 208.953 562.107 212.677 559.274C216.523 556.348 217.078 552.029 215.727 548.037C212.597 538.789 207.072 531.035 198.389 526.203C194.605 524.097 189.999 522.994 186.308 526.509C182.201 530.42 182.794 535.601 184.09 540.472C184.706 542.785 186.404 544.811 187.813 547.268Z" fill="#3E1860"/>
<path d="M207.74 574.591C206.885 586.745 214.191 593.685 222.578 599.903C223.862 600.854 225.724 601.833 227.151 601.628C231.27 601.037 236.14 600.877 239.057 598.508C240.799 597.093 240.039 591.708 239.288 588.357C238.471 584.718 236.618 581.225 234.76 577.924C230.773 570.837 222.688 566.854 214.965 568.753C212.285 569.412 210.155 572.309 207.74 574.591Z" fill="#3E1860"/>
<path d="M79.6933 493.411C76.5241 492.595 73.5976 491.162 70.8706 491.474C64.1995 492.236 60.203 499.6 62.8138 506.076C65.6812 513.189 70.3957 519.09 76.5851 523.617C81.0373 526.873 86.9066 526.594 90.7838 523.443C94.6955 520.264 96.1226 514.788 94.1567 509.726C91.4115 502.658 87.1203 496.88 79.6933 493.411Z" fill="#3E1860"/>
<path d="M117.847 548.584C114.037 541.839 108.826 537.095 102.379 533.647C96.7076 530.613 89.3654 531.114 85.9223 534.765C83.4701 537.365 83.4598 545.581 86.7142 549.877C91.4511 556.129 97.1302 561.699 105.134 563.374C108.373 564.051 112.166 563.511 115.348 562.45C117.05 561.883 118.794 559.145 119.077 557.178C119.459 554.531 118.449 551.684 117.847 548.584Z" fill="#3E1860"/>
<path d="M5.16415 519.906C8.42856 522.459 11.404 524.798 14.4673 527.017C20.4171 531.326 26.8431 530.62 33.1314 528.19C37.3478 526.561 37.4671 522.256 35.5677 519.5C31.8987 514.178 27.417 509.335 22.7997 504.771C18.7787 500.797 14.0354 497.984 7.80148 498.565C1.22061 499.18 -2.72714 504.319 -0.390839 510.576C0.815765 513.807 3.11136 516.631 5.16415 519.906Z" fill="#3E1860"/>
<path d="M23.977 676.63C19.0491 675.679 15.1348 676.776 12.3125 680.611C9.67812 684.191 9.53395 688.318 11.8055 691.862C16.6578 699.432 22.5514 705.907 31.9611 708.023C38.9837 709.601 45.013 704.669 44.4649 697.486C43.8671 689.653 32.7048 676.928 23.977 676.63Z" fill="#3E1860"/>
<path d="M277.229 639.202C266.211 639.203 261.168 647.254 265.675 656.854C268.892 663.707 273.314 669.389 280.714 671.899C290.892 675.351 295.771 668.739 295.109 660.091C294.398 650.817 287.502 644.296 280.068 638.968C279.569 638.611 278.468 639.094 277.229 639.202Z" fill="#3E1860"/>
<path d="M52.5733 604.222C52.3375 594.889 46.8234 589.061 40.3897 583.959C36.3806 580.781 32.4506 577.168 26.4047 578.989C19.2382 581.148 16.0651 587.653 19.789 594.08C24.3492 601.951 31.2452 607.545 39.3918 611.229C46.0166 614.225 49.8235 611.945 52.5733 604.222Z" fill="#3E1860"/>
<path d="M12.7489 563.968C11.4543 555.338 -1.52965 542.668 -9.6129 541.742C-14.5728 541.174 -18.5312 542.883 -20.9472 547.266C-23.5499 551.989 -21.2865 556.209 -18.0614 559.257C-12.983 564.058 -7.47514 568.51 -1.68803 572.428C5.65157 577.398 12.5364 573.341 12.7489 563.968Z" fill="#3E1860"/>
<path d="M29.1007 503.109C31.1914 504.737 33.054 506.064 34.8483 507.477C39.8669 511.43 46.7435 511.821 50.3648 508.318C55.0486 503.788 56.0681 495.253 51.5146 490.819C47.1987 486.616 42.0936 483.047 36.863 480.015C32.5089 477.49 25.9533 479.337 23.1991 482.787C20.7766 485.822 20.8563 491.878 23.5479 495.859C25.1823 498.276 27.0684 500.524 29.1007 503.109Z" fill="#3E1860"/>
<path d="M20.5174 536.853C12.8052 538.268 9.28761 543.48 11.7337 550.278C14.6981 558.516 20.9461 563.978 28.6606 567.742C32.2636 569.5 36.0404 569.351 38.4979 565.877C41.1719 562.098 43.7737 557.672 41.4509 552.989C37.2385 544.497 30.7769 538.409 20.5174 536.853Z" fill="#3E1860"/>
<path d="M257.943 554.285C261.066 563.122 266.504 569.635 274.616 573.366C276.8 574.371 280.411 573.775 282.729 572.627C285.984 571.015 286.606 567.607 285.756 563.971C283.63 554.882 278.497 547.709 271.62 541.705C268.465 538.95 264.682 537.282 260.794 540.17C257.031 542.965 254.547 546.533 256.988 551.582C257.345 552.322 257.523 553.149 257.943 554.285Z" fill="#3E1860"/>
<path d="M243.578 564.237C251.806 559.472 252.971 555.976 248.718 547.944C245.066 541.049 241.068 534.349 232.536 532.432C226.083 530.982 219.324 537.258 220.937 543.5C223.418 553.1 228.902 560.331 238.421 563.932C239.876 564.483 241.621 564.27 243.578 564.237Z" fill="#3E1860"/>
<path d="M171.973 657.241C165.366 661.041 163.588 666.133 167.099 672.288C169.444 676.4 172.578 680.072 175.456 683.867C178.59 688 183.169 688.189 187.675 687.67C192.8 687.08 194.982 682.525 194.143 675.098C193.29 667.546 185.857 658.623 178.477 656.778C176.572 656.302 174.383 656.959 171.973 657.241Z" fill="#3E1860"/>
<path d="M171.431 452.805C167.452 447.958 164.351 442.753 157.031 443.231C150.069 443.685 146.474 447.127 146.775 454.19C147.017 459.892 155.341 471.14 160.649 473.162C164.794 474.741 168.509 474.985 172.038 471.559C175.746 467.961 176.08 463.78 174.704 459.29C174.038 457.117 172.696 455.15 171.431 452.805Z" fill="#3E1860"/>
<path d="M123.311 641.788C122.497 632.726 114.884 622.461 106.735 621.791C97.1692 621.005 91.5101 626.815 94.7821 635.806C97.4943 643.258 108.719 651.588 114.786 650.879C120.395 650.224 123.011 648.143 123.311 641.788Z" fill="#3E1860"/>
<path d="M72.3097 619.836C76.5434 622.199 80.3207 625.307 84.558 626.178C92.4258 627.796 96.6172 619.7 93.14 612.582C89.6458 605.429 84.0395 599.802 76.554 597.008C73.8091 595.983 69.5336 596.6 66.9713 598.148C63.5305 600.227 62.5654 604.571 64.5231 608.324C66.5983 612.302 69.5129 615.842 72.3097 619.836Z" fill="#3E1860"/>
<path d="M-3.43756 465.559C-8.21533 464.501 -12.8032 465.479 -14.9857 468.972C-17.4391 472.898 -16.5405 477.709 -13.8661 481.967C-9.26733 489.287 -2.37586 493.298 5.6452 495.248C7.65808 495.737 11.1553 494.257 12.4293 492.539C13.8308 490.649 14.4974 487.023 13.6425 484.892C11.6991 480.047 9.11798 475.256 5.83704 471.224C3.75647 468.667 -0.0483363 467.513 -3.43756 465.559Z" fill="#3E1860"/>
<path d="M246.622 505.56C242.154 502.508 238.468 498.861 232.675 499.387C227.243 499.88 223.092 502.626 223.733 507.804C224.291 512.309 226.314 517.585 229.506 520.595C234.767 525.556 241.127 530.276 249.412 526.04C253.899 523.745 255.557 520.577 253.475 516.001C251.81 512.343 249.161 509.132 246.622 505.56Z" fill="#3E1860"/>
<path d="M113.557 452.515C117.251 459.226 121.506 464.551 129.855 463.79C134.465 463.37 138.761 458.672 138.808 454.056C138.863 448.585 130.021 436.38 125.237 433.981C119.271 430.988 111.154 435.034 111.458 443.554C111.561 446.442 112.73 449.292 113.557 452.515Z" fill="#3E1860"/>
<path d="M-41.4661 494.666C-38.7847 496.882 -36.5048 499.05 -33.9522 500.826C-29.6059 503.85 -24.3781 503.637 -21.2158 500.595C-17.5657 497.084 -17.178 491.683 -20.2127 487.038C-21.105 485.672 -22.2795 484.36 -22.7135 482.848C-24.7004 475.924 -36.8674 471.809 -44.1723 475.877C-48.6099 478.349 -49.8868 483.569 -46.9734 487.8C-45.3787 490.116 -43.497 492.234 -41.4661 494.666Z" fill="#3E1860"/>
<path d="M69.1383 468.221C66.6748 462.136 63.0936 457.603 57.1169 455.35C53.1428 453.851 49.365 454.453 46.5569 457.482C43.8822 460.367 42.0656 463.607 43.1609 468.209C45.028 476.054 50.1233 480.632 56.9676 483.722C65.8192 487.718 70.5326 481.344 70.3288 473.444C70.287 471.823 69.6194 470.218 69.1383 468.221Z" fill="#3E1860"/>
<path d="M26.4089 473.554C30.7473 473.22 35.053 472.36 35.9364 468.185C37.0012 463.153 37.6867 457.561 33.0838 453.371C27.754 448.519 21.4331 446.524 14.3513 447.671C8.71315 448.585 6.25691 452.851 7.76015 458.316C9.39229 464.25 19.4768 472.676 26.4089 473.554Z" fill="#3E1860"/>
<path d="M208.806 463.057C205.071 466.686 204.823 470.88 206.835 474.714C210.561 481.818 215.639 487.758 223.845 490.092C229.05 491.572 233.057 488.677 233.138 483.298C233.263 475.033 225.195 463.015 217.601 461.26C215.018 460.663 211.937 462.222 208.806 463.057Z" fill="#3E1860"/>
<path d="M284.615 623.854C283.979 631.53 289.78 642.471 296.025 644.509C299.718 645.715 303.798 645.639 307.158 642.443C310.781 638.998 311.267 634.682 309.886 630.573C308.215 625.6 305.437 621.121 300.45 618.325C293.915 614.662 288.125 616.406 284.615 623.854Z" fill="#3E1860"/>
<path d="M71.3955 587.857C75.4286 582.418 75.8497 579.918 71.6784 575.145C68.2978 571.277 64.2352 567.74 59.8469 565.1C56.33 562.985 52.1343 564.453 49.5063 567.631C46.753 570.96 46.6155 575.106 48.7519 578.854C51.843 584.278 55.53 589.442 62.5015 589.82C65.4018 589.976 68.3739 588.804 71.3955 587.857Z" fill="#3E1860"/>
<path d="M-5.38761 530.974C-2.36594 528.284 -1.95255 525.392 -3.45097 522.162C-6.7136 515.128 -11.3842 509.501 -19.2951 507.672C-22.9179 506.834 -26.9002 507.665 -28.2347 511.298C-29.3131 514.234 -29.738 518.653 -28.2433 521.017C-25.5982 525.201 -21.5799 528.727 -17.5625 531.771C-13.854 534.58 -9.49296 534.526 -5.38761 530.974Z" fill="#3E1860"/>
<path d="M285.793 593.63C286.386 601.393 291.256 606.156 296.749 609.775C298.841 611.154 303.49 610.498 305.896 609.017C308.115 607.651 310.197 603.864 310.05 601.273C309.653 594.304 305.847 588.781 299.698 585.248C292.95 581.372 285.999 585.433 285.793 593.63Z" fill="#3E1860"/>
</g>
<defs>
<linearGradient id="paint0_linear_66_137" x1="512" y1="0" x2="512" y2="693" gradientUnits="userSpaceOnUse">
<stop stop-color="#F6B012"/>
<stop offset="1" stop-color="#C19329"/>
</linearGradient>
<linearGradient id="paint1_linear_66_137" x1="512" y1="0" x2="512" y2="693" gradientUnits="userSpaceOnUse">
<stop stop-color="#3E1860"/>
<stop offset="1" stop-color="#683A9A"/>
</linearGradient>
</defs>
</svg>
