<svg width="31" height="31" viewBox="0 0 31 31" fill="none" xmlns="http://www.w3.org/2000/svg">
<path d="M26.7 0.799805H4.29999C2.36799 0.799805 0.799988 2.3678 0.799988 4.2998V26.6998C0.799988 28.6318 2.36799 30.1998 4.29999 30.1998H26.7C28.632 30.1998 30.2 28.6318 30.2 26.6998V4.2998C30.2 2.3678 28.632 0.799805 26.7 0.799805ZM23.9 11.2998H22.5C21.002 11.2998 20.4 11.6498 20.4 12.6998V14.7998H23.9L23.2 18.2998H20.4V28.7998H16.9V18.2998H14.1V14.7998H16.9V12.6998C16.9 9.89981 18.3 7.79981 21.1 7.79981C23.13 7.79981 23.9 8.49981 23.9 8.49981V11.2998Z" fill="white"/>
</svg>
